solid exported
	facet normal 0 0 -1
		outer loop
			vertex 11.840457916259766 75.78434753417969 -10
			vertex 15.565797805786133 78.60119438171387 -10
			vertex 20.332002639770508 81.796875 -10
		endloop
	endfacet
	facet normal 0 0 -1
		outer loop
			vertex 0.4865345358848572 69.02477836608887 -10
			vertex 3.3465213775634766 70.60848999023438 -10
			vertex 6.604894638061523 72.11040687561035 -10
		endloop
	endfacet
	facet normal 0 0 -1
		outer loop
			vertex -6.494380474090576 65.20710468292236 -10
			vertex -3.3117737770080566 67.1166763305664 -10
			vertex 0.4865345358848572 69.02477836608887 -10
		endloop
	endfacet
	facet normal 0 0 -1
		outer loop
			vertex -14.144195556640625 59.33725643157959 -10
			vertex -9.675809860229492 63.140424728393555 -10
			vertex -6.494380474090576 65.20710468292236 -10
		endloop
	endfacet
	facet normal 0 0 -1
		outer loop
			vertex -20.301652908325195 54.233134269714355 -10
			vertex -16.896211624145508 57.095852851867676 -10
			vertex -14.144195556640625 59.33725643157959 -10
		endloop
	endfacet
	facet normal 0 0 -1
		outer loop
			vertex -26.738527297973633 49.538551300764084 -10
			vertex -23.34121322631836 52.0777645111084 -10
			vertex -20.301652908325195 54.233134269714355 -10
		endloop
	endfacet
	facet normal 0 0 -1
		outer loop
			vertex -33.243595123291016 43.53001689910889 -10
			vertex -30.061628341674805 46.5062530040741 -10
			vertex -26.738527297973633 49.538551300764084 -10
		endloop
	endfacet
	facet normal 0 0 -1
		outer loop
			vertex -44.18619918823242 34.02772808074951 -10
			vertex -41.5150260925293 36.49317169189453 -10
			vertex -38.637184143066406 38.886823654174805 -10
		endloop
	endfacet
	facet normal 0 0 -1
		outer loop
			vertex -45.058956146240234 28.75061798095703 -10
			vertex -47.36293411254883 31.672977447509766 -10
			vertex -44.18619918823242 34.02772808074951 -10
		endloop
	endfacet
	facet normal 0 0 -1
		outer loop
			vertex -34.878456115722656 20.21620750427246 -10
			vertex -40.123836517333984 24.514230728149414 -10
			vertex -45.058956146240234 28.75061798095703 -10
		endloop
	endfacet
	facet normal 0 0 -1
		outer loop
			vertex -22.6042423248291 13.771648406982422 -10
			vertex -27.7861270904541 11.652992248535156 -10
			vertex -29.565670013427734 14.389026641845703 -10
		endloop
	endfacet
	facet normal 0 0 -1
		outer loop
			vertex -7.201898574829102 23.675920486450195 -10
			vertex -11.66077995300293 20.710912704467773 -10
			vertex -17.83070945739746 16.84152603149414 -10
		endloop
	endfacet
	facet normal 0 0 -1
		outer loop
			vertex 4.378467559814453 31.708938598632812 -10
			vertex -1.0756263732910156 27.895427703857422 -10
			vertex -7.201898574829102 23.675920486450195 -10
		endloop
	endfacet
	facet normal 0 0 -1
		outer loop
			vertex 17.542545318603516 39.560678482055664 -10
			vertex 12.168842315673828 36.385475158691406 -10
			vertex 8.250960350036621 34.25031852722168 -10
		endloop
	endfacet
	facet normal 0 0 -1
		outer loop
			vertex 25.9152889251709 46.10453248023987 -10
			vertex 22.385204315185547 43.244168758392334 -10
			vertex 17.542545318603516 39.560678482055664 -10
		endloop
	endfacet
	facet normal 0 0 -1
		outer loop
			vertex 35.06475830078125 55.405009269714355 -10
			vertex 31.84233856201172 51.82582497596741 -10
			vertex 28.5841064453125 48.773351311683655 -10
		endloop
	endfacet
	facet normal 0 0 -1
		outer loop
			vertex 44.40361785888672 65.21015644073486 -10
			vertex 41.35643005371094 61.95720863342285 -10
			vertex 37.54988098144531 58.002564430236816 -10
		endloop
	endfacet
	facet normal 0 0 -1
		outer loop
			vertex 45.539306640625 73.13176727294922 -10
			vertex 47.36293029785156 69.03088188171387 -10
			vertex 44.40361785888672 65.21015644073486 -10
		endloop
	endfacet
	facet normal 0 0 -1
		outer loop
			vertex 30.54051971435547 85.08640670776367 -10
			vertex 33.43492126464844 82.76703262329102 -10
			vertex 37.02327346801758 79.59523963928223 -10
		endloop
	endfacet
	facet normal 0 0 -1
		outer loop
			vertex 20.332002639770508 81.796875 -10
			vertex 28.064178466796875 88.34700393676758 -10
			vertex 27.632966995239258 87.1286735534668 -10
		endloop
	endfacet
	facet normal 0 0 -1
		outer loop
			vertex -6.494380474090576 65.20710468292236 -10
			vertex 0.4865345358848572 69.02477836608887 -10
			vertex 6.604894638061523 72.11040687561035 -10
		endloop
	endfacet
	facet normal 0 0 -1
		outer loop
			vertex -20.301652908325195 54.233134269714355 -10
			vertex -14.144195556640625 59.33725643157959 -10
			vertex -6.494380474090576 65.20710468292236 -10
		endloop
	endfacet
	facet normal 0 0 -1
		outer loop
			vertex -33.243595123291016 43.53001689910889 -10
			vertex -26.738527297973633 49.538551300764084 -10
			vertex -20.301652908325195 54.233134269714355 -10
		endloop
	endfacet
	facet normal 0 0 -1
		outer loop
			vertex -44.18619918823242 34.02772808074951 -10
			vertex -38.637184143066406 38.886823654174805 -10
			vertex -33.243595123291016 43.53001689910889 -10
		endloop
	endfacet
	facet normal 0 0 -1
		outer loop
			vertex -34.878456115722656 20.21620750427246 -10
			vertex -45.058956146240234 28.75061798095703 -10
			vertex -44.18619918823242 34.02772808074951 -10
		endloop
	endfacet
	facet normal 0 0 -1
		outer loop
			vertex -22.6042423248291 13.771648406982422 -10
			vertex -29.565670013427734 14.389026641845703 -10
			vertex -31.71485710144043 17.052627563476562 -10
		endloop
	endfacet
	facet normal 0 0 -1
		outer loop
			vertex 4.378467559814453 31.708938598632812 -10
			vertex -7.201898574829102 23.675920486450195 -10
			vertex -17.83070945739746 16.84152603149414 -10
		endloop
	endfacet
	facet normal 0 0 -1
		outer loop
			vertex 25.9152889251709 46.10453248023987 -10
			vertex 17.542545318603516 39.560678482055664 -10
			vertex 8.250960350036621 34.25031852722168 -10
		endloop
	endfacet
	facet normal 0 0 -1
		outer loop
			vertex 35.06475830078125 55.405009269714355 -10
			vertex 28.5841064453125 48.773351311683655 -10
			vertex 25.9152889251709 46.10453248023987 -10
		endloop
	endfacet
	facet normal 0 0 -1
		outer loop
			vertex 44.40361785888672 65.21015644073486 -10
			vertex 37.54988098144531 58.002564430236816 -10
			vertex 35.06475830078125 55.405009269714355 -10
		endloop
	endfacet
	facet normal 0 0 -1
		outer loop
			vertex 42.96316909790039 75.03870010375977 -10
			vertex 45.539306640625 73.13176727294922 -10
			vertex 44.40361785888672 65.21015644073486 -10
		endloop
	endfacet
	facet normal 0 0 -1
		outer loop
			vertex 27.632966995239258 87.1286735534668 -10
			vertex 30.54051971435547 85.08640670776367 -10
			vertex 37.02327346801758 79.59523963928223 -10
		endloop
	endfacet
	facet normal 0 0 -1
		outer loop
			vertex -20.301652908325195 54.233134269714355 -10
			vertex -6.494380474090576 65.20710468292236 -10
			vertex 6.604894638061523 72.11040687561035 -10
		endloop
	endfacet
	facet normal 0 0 -1
		outer loop
			vertex -44.18619918823242 34.02772808074951 -10
			vertex -33.243595123291016 43.53001689910889 -10
			vertex -20.301652908325195 54.233134269714355 -10
		endloop
	endfacet
	facet normal 0 0 -1
		outer loop
			vertex -31.71485710144043 17.052627563476562 -10
			vertex -34.878456115722656 20.21620750427246 -10
			vertex -44.18619918823242 34.02772808074951 -10
		endloop
	endfacet
	facet normal 0 0 -1
		outer loop
			vertex -17.83070945739746 16.84152603149414 -10
			vertex -22.6042423248291 13.771648406982422 -10
			vertex -31.71485710144043 17.052627563476562 -10
		endloop
	endfacet
	facet normal 0 0 -1
		outer loop
			vertex 25.9152889251709 46.10453248023987 -10
			vertex 8.250960350036621 34.25031852722168 -10
			vertex 4.378467559814453 31.708938598632812 -10
		endloop
	endfacet
	facet normal 0 0 -1
		outer loop
			vertex 44.40361785888672 65.21015644073486 -10
			vertex 35.06475830078125 55.405009269714355 -10
			vertex 25.9152889251709 46.10453248023987 -10
		endloop
	endfacet
	facet normal 0 0 -1
		outer loop
			vertex 39.97297668457031 77.28132820129395 -10
			vertex 42.96316909790039 75.03870010375977 -10
			vertex 44.40361785888672 65.21015644073486 -10
		endloop
	endfacet
	facet normal 0 0 -1
		outer loop
			vertex 20.332002639770508 81.796875 -10
			vertex 27.632966995239258 87.1286735534668 -10
			vertex 37.02327346801758 79.59523963928223 -10
		endloop
	endfacet
	facet normal 0 0 -1
		outer loop
			vertex -44.18619918823242 34.02772808074951 -10
			vertex -20.301652908325195 54.233134269714355 -10
			vertex 6.604894638061523 72.11040687561035 -10
		endloop
	endfacet
	facet normal 0 0 -1
		outer loop
			vertex -17.83070945739746 16.84152603149414 -10
			vertex -31.71485710144043 17.052627563476562 -10
			vertex -44.18619918823242 34.02772808074951 -10
		endloop
	endfacet
	facet normal 0 0 -1
		outer loop
			vertex 44.40361785888672 65.21015644073486 -10
			vertex 25.9152889251709 46.10453248023987 -10
			vertex 4.378467559814453 31.708938598632812 -10
		endloop
	endfacet
	facet normal 0 0 -1
		outer loop
			vertex 37.02327346801758 79.59523963928223 -10
			vertex 39.97297668457031 77.28132820129395 -10
			vertex 44.40361785888672 65.21015644073486 -10
		endloop
	endfacet
	facet normal 0 0 -1
		outer loop
			vertex 11.840457916259766 75.78434753417969 -10
			vertex 20.332002639770508 81.796875 -10
			vertex 37.02327346801758 79.59523963928223 -10
		endloop
	endfacet
	facet normal 0 0 -1
		outer loop
			vertex -44.18619918823242 34.02772808074951 -10
			vertex 6.604894638061523 72.11040687561035 -10
			vertex 11.840457916259766 75.78434753417969 -10
		endloop
	endfacet
	facet normal 0 0 -1
		outer loop
			vertex 4.378467559814453 31.708938598632812 -10
			vertex -17.83070945739746 16.84152603149414 -10
			vertex -44.18619918823242 34.02772808074951 -10
		endloop
	endfacet
	facet normal 0 0 -1
		outer loop
			vertex 37.02327346801758 79.59523963928223 -10
			vertex 44.40361785888672 65.21015644073486 -10
			vertex 4.378467559814453 31.708938598632812 -10
		endloop
	endfacet
	facet normal 0 0 -1
		outer loop
			vertex -44.18619918823242 34.02772808074951 -10
			vertex 11.840457916259766 75.78434753417969 -10
			vertex 37.02327346801758 79.59523963928223 -10
		endloop
	endfacet
	facet normal 0 0 -1
		outer loop
			vertex 37.02327346801758 79.59523963928223 -10
			vertex 4.378467559814453 31.708938598632812 -10
			vertex -44.18619918823242 34.02772808074951 -10
		endloop
	endfacet
	facet normal 0 0 1
		outer loop
			vertex 20.332002639770508 81.796875 10
			vertex 15.565797805786133 78.60119438171387 10
			vertex 11.840457916259766 75.78434753417969 10
		endloop
	endfacet
	facet normal 0 0 1
		outer loop
			vertex 6.604894638061523 72.11040687561035 10
			vertex 3.3465213775634766 70.60848999023438 10
			vertex 0.4865345358848572 69.02477836608887 10
		endloop
	endfacet
	facet normal 0 0 1
		outer loop
			vertex 0.4865345358848572 69.02477836608887 10
			vertex -3.3117737770080566 67.1166763305664 10
			vertex -6.494380474090576 65.20710468292236 10
		endloop
	endfacet
	facet normal 0 0 1
		outer loop
			vertex -6.494380474090576 65.20710468292236 10
			vertex -9.675809860229492 63.140424728393555 10
			vertex -14.144195556640625 59.33725643157959 10
		endloop
	endfacet
	facet normal 0 0 1
		outer loop
			vertex -14.144195556640625 59.33725643157959 10
			vertex -16.896211624145508 57.095852851867676 10
			vertex -20.301652908325195 54.233134269714355 10
		endloop
	endfacet
	facet normal 0 0 1
		outer loop
			vertex -20.301652908325195 54.233134269714355 10
			vertex -23.34121322631836 52.0777645111084 10
			vertex -26.738527297973633 49.538551300764084 10
		endloop
	endfacet
	facet normal 0 0 1
		outer loop
			vertex -26.738527297973633 49.538551300764084 10
			vertex -30.061628341674805 46.5062530040741 10
			vertex -33.243595123291016 43.53001689910889 10
		endloop
	endfacet
	facet normal 0 0 1
		outer loop
			vertex -38.637184143066406 38.886823654174805 10
			vertex -41.5150260925293 36.49317169189453 10
			vertex -44.18619918823242 34.02772808074951 10
		endloop
	endfacet
	facet normal 0 0 1
		outer loop
			vertex -44.18619918823242 34.02772808074951 10
			vertex -47.36293411254883 31.672977447509766 10
			vertex -45.058956146240234 28.75061798095703 10
		endloop
	endfacet
	facet normal 0 0 1
		outer loop
			vertex -45.058956146240234 28.75061798095703 10
			vertex -40.123836517333984 24.514230728149414 10
			vertex -34.878456115722656 20.21620750427246 10
		endloop
	endfacet
	facet normal 0 0 1
		outer loop
			vertex -29.565670013427734 14.389026641845703 10
			vertex -27.7861270904541 11.652992248535156 10
			vertex -22.6042423248291 13.771648406982422 10
		endloop
	endfacet
	facet normal 0 0 1
		outer loop
			vertex -17.83070945739746 16.84152603149414 10
			vertex -11.66077995300293 20.710912704467773 10
			vertex -7.201898574829102 23.675920486450195 10
		endloop
	endfacet
	facet normal 0 0 1
		outer loop
			vertex -7.201898574829102 23.675920486450195 10
			vertex -1.0756263732910156 27.895427703857422 10
			vertex 4.378467559814453 31.708938598632812 10
		endloop
	endfacet
	facet normal 0 0 1
		outer loop
			vertex 8.250960350036621 34.25031852722168 10
			vertex 12.168842315673828 36.385475158691406 10
			vertex 17.542545318603516 39.560678482055664 10
		endloop
	endfacet
	facet normal 0 0 1
		outer loop
			vertex 17.542545318603516 39.560678482055664 10
			vertex 22.385204315185547 43.244168758392334 10
			vertex 25.9152889251709 46.10453248023987 10
		endloop
	endfacet
	facet normal 0 0 1
		outer loop
			vertex 28.5841064453125 48.773351311683655 10
			vertex 31.84233856201172 51.82582497596741 10
			vertex 35.06475830078125 55.405009269714355 10
		endloop
	endfacet
	facet normal 0 0 1
		outer loop
			vertex 37.54988098144531 58.002564430236816 10
			vertex 41.35643005371094 61.95720863342285 10
			vertex 44.40361785888672 65.21015644073486 10
		endloop
	endfacet
	facet normal 0 0 1
		outer loop
			vertex 44.40361785888672 65.21015644073486 10
			vertex 47.36293029785156 69.03088188171387 10
			vertex 45.539306640625 73.13176727294922 10
		endloop
	endfacet
	facet normal 0 0 1
		outer loop
			vertex 37.02327346801758 79.59523963928223 10
			vertex 33.43492126464844 82.76703262329102 10
			vertex 30.54051971435547 85.08640670776367 10
		endloop
	endfacet
	facet normal 0 0 1
		outer loop
			vertex 27.632966995239258 87.1286735534668 10
			vertex 28.064178466796875 88.34700393676758 10
			vertex 20.332002639770508 81.796875 10
		endloop
	endfacet
	facet normal 0 0 1
		outer loop
			vertex 6.604894638061523 72.11040687561035 10
			vertex 0.4865345358848572 69.02477836608887 10
			vertex -6.494380474090576 65.20710468292236 10
		endloop
	endfacet
	facet normal 0 0 1
		outer loop
			vertex -6.494380474090576 65.20710468292236 10
			vertex -14.144195556640625 59.33725643157959 10
			vertex -20.301652908325195 54.233134269714355 10
		endloop
	endfacet
	facet normal 0 0 1
		outer loop
			vertex -20.301652908325195 54.233134269714355 10
			vertex -26.738527297973633 49.538551300764084 10
			vertex -33.243595123291016 43.53001689910889 10
		endloop
	endfacet
	facet normal 0 0 1
		outer loop
			vertex -33.243595123291016 43.53001689910889 10
			vertex -38.637184143066406 38.886823654174805 10
			vertex -44.18619918823242 34.02772808074951 10
		endloop
	endfacet
	facet normal 0 0 1
		outer loop
			vertex -44.18619918823242 34.02772808074951 10
			vertex -45.058956146240234 28.75061798095703 10
			vertex -34.878456115722656 20.21620750427246 10
		endloop
	endfacet
	facet normal 0 0 1
		outer loop
			vertex -31.71485710144043 17.052627563476562 10
			vertex -29.565670013427734 14.389026641845703 10
			vertex -22.6042423248291 13.771648406982422 10
		endloop
	endfacet
	facet normal 0 0 1
		outer loop
			vertex -17.83070945739746 16.84152603149414 10
			vertex -7.201898574829102 23.675920486450195 10
			vertex 4.378467559814453 31.708938598632812 10
		endloop
	endfacet
	facet normal 0 0 1
		outer loop
			vertex 8.250960350036621 34.25031852722168 10
			vertex 17.542545318603516 39.560678482055664 10
			vertex 25.9152889251709 46.10453248023987 10
		endloop
	endfacet
	facet normal 0 0 1
		outer loop
			vertex 25.9152889251709 46.10453248023987 10
			vertex 28.5841064453125 48.773351311683655 10
			vertex 35.06475830078125 55.405009269714355 10
		endloop
	endfacet
	facet normal 0 0 1
		outer loop
			vertex 35.06475830078125 55.405009269714355 10
			vertex 37.54988098144531 58.002564430236816 10
			vertex 44.40361785888672 65.21015644073486 10
		endloop
	endfacet
	facet normal 0 0 1
		outer loop
			vertex 44.40361785888672 65.21015644073486 10
			vertex 45.539306640625 73.13176727294922 10
			vertex 42.96316909790039 75.03870010375977 10
		endloop
	endfacet
	facet normal 0 0 1
		outer loop
			vertex 37.02327346801758 79.59523963928223 10
			vertex 30.54051971435547 85.08640670776367 10
			vertex 27.632966995239258 87.1286735534668 10
		endloop
	endfacet
	facet normal 0 0 1
		outer loop
			vertex 6.604894638061523 72.11040687561035 10
			vertex -6.494380474090576 65.20710468292236 10
			vertex -20.301652908325195 54.233134269714355 10
		endloop
	endfacet
	facet normal 0 0 1
		outer loop
			vertex -20.301652908325195 54.233134269714355 10
			vertex -33.243595123291016 43.53001689910889 10
			vertex -44.18619918823242 34.02772808074951 10
		endloop
	endfacet
	facet normal 0 0 1
		outer loop
			vertex -44.18619918823242 34.02772808074951 10
			vertex -34.878456115722656 20.21620750427246 10
			vertex -31.71485710144043 17.052627563476562 10
		endloop
	endfacet
	facet normal 0 0 1
		outer loop
			vertex -31.71485710144043 17.052627563476562 10
			vertex -22.6042423248291 13.771648406982422 10
			vertex -17.83070945739746 16.84152603149414 10
		endloop
	endfacet
	facet normal 0 0 1
		outer loop
			vertex 4.378467559814453 31.708938598632812 10
			vertex 8.250960350036621 34.25031852722168 10
			vertex 25.9152889251709 46.10453248023987 10
		endloop
	endfacet
	facet normal 0 0 1
		outer loop
			vertex 25.9152889251709 46.10453248023987 10
			vertex 35.06475830078125 55.405009269714355 10
			vertex 44.40361785888672 65.21015644073486 10
		endloop
	endfacet
	facet normal 0 0 1
		outer loop
			vertex 44.40361785888672 65.21015644073486 10
			vertex 42.96316909790039 75.03870010375977 10
			vertex 39.97297668457031 77.28132820129395 10
		endloop
	endfacet
	facet normal 0 0 1
		outer loop
			vertex 37.02327346801758 79.59523963928223 10
			vertex 27.632966995239258 87.1286735534668 10
			vertex 20.332002639770508 81.796875 10
		endloop
	endfacet
	facet normal 0 0 1
		outer loop
			vertex 6.604894638061523 72.11040687561035 10
			vertex -20.301652908325195 54.233134269714355 10
			vertex -44.18619918823242 34.02772808074951 10
		endloop
	endfacet
	facet normal 0 0 1
		outer loop
			vertex -44.18619918823242 34.02772808074951 10
			vertex -31.71485710144043 17.052627563476562 10
			vertex -17.83070945739746 16.84152603149414 10
		endloop
	endfacet
	facet normal 0 0 1
		outer loop
			vertex 4.378467559814453 31.708938598632812 10
			vertex 25.9152889251709 46.10453248023987 10
			vertex 44.40361785888672 65.21015644073486 10
		endloop
	endfacet
	facet normal 0 0 1
		outer loop
			vertex 44.40361785888672 65.21015644073486 10
			vertex 39.97297668457031 77.28132820129395 10
			vertex 37.02327346801758 79.59523963928223 10
		endloop
	endfacet
	facet normal 0 0 1
		outer loop
			vertex 37.02327346801758 79.59523963928223 10
			vertex 20.332002639770508 81.796875 10
			vertex 11.840457916259766 75.78434753417969 10
		endloop
	endfacet
	facet normal 0 0 1
		outer loop
			vertex 11.840457916259766 75.78434753417969 10
			vertex 6.604894638061523 72.11040687561035 10
			vertex -44.18619918823242 34.02772808074951 10
		endloop
	endfacet
	facet normal 0 0 1
		outer loop
			vertex -44.18619918823242 34.02772808074951 10
			vertex -17.83070945739746 16.84152603149414 10
			vertex 4.378467559814453 31.708938598632812 10
		endloop
	endfacet
	facet normal 0 0 1
		outer loop
			vertex 4.378467559814453 31.708938598632812 10
			vertex 44.40361785888672 65.21015644073486 10
			vertex 37.02327346801758 79.59523963928223 10
		endloop
	endfacet
	facet normal 0 0 1
		outer loop
			vertex 37.02327346801758 79.59523963928223 10
			vertex 11.840457916259766 75.78434753417969 10
			vertex -44.18619918823242 34.02772808074951 10
		endloop
	endfacet
	facet normal 0 0 1
		outer loop
			vertex -44.18619918823242 34.02772808074951 10
			vertex 4.378467559814453 31.708938598632812 10
			vertex 37.02327346801758 79.59523963928223 10
		endloop
	endfacet
	facet normal -0.5568952959090747 0.8305827047286406 0
		outer loop
			vertex 20.332002639770508 81.796875 -10
			vertex 15.565797805786133 78.60119438171387 -10
			vertex 20.332002639770508 81.796875 10
		endloop
	endfacet
	facet normal -0.5568952959090747 0.8305827047286406 0
		outer loop
			vertex 15.565797805786133 78.60119438171387 -10
			vertex 15.565797805786133 78.60119438171387 10
			vertex 20.332002639770508 81.796875 10
		endloop
	endfacet
	facet normal -0.6031255003579322 0.7976463068415688 0
		outer loop
			vertex 15.565797805786133 78.60119438171387 -10
			vertex 11.840457916259766 75.78434753417969 -10
			vertex 15.565797805786133 78.60119438171387 10
		endloop
	endfacet
	facet normal -0.6031255003579322 0.7976463068415688 0
		outer loop
			vertex 11.840457916259766 75.78434753417969 -10
			vertex 11.840457916259766 75.78434753417969 10
			vertex 15.565797805786133 78.60119438171387 10
		endloop
	endfacet
	facet normal -0.5744112049023234 0.8185668987215773 0
		outer loop
			vertex 11.840457916259766 75.78434753417969 -10
			vertex 6.604894638061523 72.11040687561035 -10
			vertex 11.840457916259766 75.78434753417969 10
		endloop
	endfacet
	facet normal -0.5744112049023234 0.8185668987215773 0
		outer loop
			vertex 6.604894638061523 72.11040687561035 -10
			vertex 6.604894638061523 72.11040687561035 10
			vertex 11.840457916259766 75.78434753417969 10
		endloop
	endfacet
	facet normal -0.4186106003999637 0.9081658247439076 0
		outer loop
			vertex 6.604894638061523 72.11040687561035 -10
			vertex 3.3465213775634766 70.60848999023438 -10
			vertex 6.604894638061523 72.11040687561035 10
		endloop
	endfacet
	facet normal -0.4186106003999637 0.9081658247439076 0
		outer loop
			vertex 3.3465213775634766 70.60848999023438 -10
			vertex 3.3465213775634766 70.60848999023438 10
			vertex 6.604894638061523 72.11040687561035 10
		endloop
	endfacet
	facet normal -0.48443402901259713 0.8748277953601054 0
		outer loop
			vertex 3.3465213775634766 70.60848999023438 -10
			vertex 0.4865345358848572 69.02477836608887 -10
			vertex 3.3465213775634766 70.60848999023438 10
		endloop
	endfacet
	facet normal -0.48443402901259713 0.8748277953601054 0
		outer loop
			vertex 0.4865345358848572 69.02477836608887 -10
			vertex 0.4865345358848572 69.02477836608887 10
			vertex 3.3465213775634766 70.60848999023438 10
		endloop
	endfacet
	facet normal -0.4488968531071061 0.8935835804615804 0
		outer loop
			vertex 0.4865345358848572 69.02477836608887 -10
			vertex -3.3117737770080566 67.1166763305664 -10
			vertex 0.4865345358848572 69.02477836608887 10
		endloop
	endfacet
	facet normal -0.4488968531071061 0.8935835804615804 0
		outer loop
			vertex -3.3117737770080566 67.1166763305664 -10
			vertex -3.3117737770080566 67.1166763305664 10
			vertex 0.4865345358848572 69.02477836608887 10
		endloop
	endfacet
	facet normal -0.5144972668923696 0.8574920188318267 0
		outer loop
			vertex -3.3117737770080566 67.1166763305664 -10
			vertex -6.494380474090576 65.20710468292236 -10
			vertex -3.3117737770080566 67.1166763305664 10
		endloop
	endfacet
	facet normal -0.5144972668923696 0.8574920188318267 0
		outer loop
			vertex -6.494380474090576 65.20710468292236 -10
			vertex -6.494380474090576 65.20710468292236 10
			vertex -3.3117737770080566 67.1166763305664 10
		endloop
	endfacet
	facet normal -0.544756862035312 0.8385940384151561 0
		outer loop
			vertex -6.494380474090576 65.20710468292236 -10
			vertex -9.675809860229492 63.140424728393555 -10
			vertex -6.494380474090576 65.20710468292236 10
		endloop
	endfacet
	facet normal -0.544756862035312 0.8385940384151561 0
		outer loop
			vertex -9.675809860229492 63.140424728393555 -10
			vertex -9.675809860229492 63.140424728393555 10
			vertex -6.494380474090576 65.20710468292236 10
		endloop
	endfacet
	facet normal -0.6481469803276684 0.7615152604459908 0
		outer loop
			vertex -9.675809860229492 63.140424728393555 -10
			vertex -14.144195556640625 59.33725643157959 -10
			vertex -9.675809860229492 63.140424728393555 10
		endloop
	endfacet
	facet normal -0.6481469803276684 0.7615152604459908 0
		outer loop
			vertex -14.144195556640625 59.33725643157959 -10
			vertex -14.144195556640625 59.33725643157959 10
			vertex -9.675809860229492 63.140424728393555 10
		endloop
	endfacet
	facet normal -0.6315070166192891 0.7753701618972741 0
		outer loop
			vertex -14.144195556640625 59.33725643157959 -10
			vertex -16.896211624145508 57.095852851867676 -10
			vertex -14.144195556640625 59.33725643157959 10
		endloop
	endfacet
	facet normal -0.6315070166192891 0.7753701618972741 0
		outer loop
			vertex -16.896211624145508 57.095852851867676 -10
			vertex -16.896211624145508 57.095852851867676 10
			vertex -14.144195556640625 59.33725643157959 10
		endloop
	endfacet
	facet normal -0.643475110398094 0.7654670354092074 0
		outer loop
			vertex -16.896211624145508 57.095852851867676 -10
			vertex -20.301652908325195 54.233134269714355 -10
			vertex -16.896211624145508 57.095852851867676 10
		endloop
	endfacet
	facet normal -0.643475110398094 0.7654670354092074 0
		outer loop
			vertex -20.301652908325195 54.233134269714355 -10
			vertex -20.301652908325195 54.233134269714355 10
			vertex -16.896211624145508 57.095852851867676 10
		endloop
	endfacet
	facet normal -0.5784368435957153 0.8157271712840182 0
		outer loop
			vertex -20.301652908325195 54.233134269714355 -10
			vertex -23.34121322631836 52.0777645111084 -10
			vertex -20.301652908325195 54.233134269714355 10
		endloop
	endfacet
	facet normal -0.5784368435957153 0.8157271712840182 0
		outer loop
			vertex -23.34121322631836 52.0777645111084 -10
			vertex -23.34121322631836 52.0777645111084 10
			vertex -20.301652908325195 54.233134269714355 10
		endloop
	endfacet
	facet normal -0.5986754837482566 0.8009916760858324 0
		outer loop
			vertex -23.34121322631836 52.0777645111084 -10
			vertex -26.738527297973633 49.538551300764084 -10
			vertex -23.34121322631836 52.0777645111084 10
		endloop
	endfacet
	facet normal -0.5986754837482566 0.8009916760858324 0
		outer loop
			vertex -26.738527297973633 49.538551300764084 -10
			vertex -26.738527297973633 49.538551300764084 10
			vertex -23.34121322631836 52.0777645111084 10
		endloop
	endfacet
	facet normal -0.6740465848293162 0.7386888394174745 0
		outer loop
			vertex -26.738527297973633 49.538551300764084 -10
			vertex -30.061628341674805 46.5062530040741 -10
			vertex -26.738527297973633 49.538551300764084 10
		endloop
	endfacet
	facet normal -0.6740465848293162 0.7386888394174745 0
		outer loop
			vertex -30.061628341674805 46.5062530040741 -10
			vertex -30.061628341674805 46.5062530040741 10
			vertex -26.738527297973633 49.538551300764084 10
		endloop
	endfacet
	facet normal -0.6831029644956533 0.7303220795630173 0
		outer loop
			vertex -30.061628341674805 46.5062530040741 -10
			vertex -33.243595123291016 43.53001689910889 -10
			vertex -30.061628341674805 46.5062530040741 10
		endloop
	endfacet
	facet normal -0.6831029644956533 0.7303220795630173 0
		outer loop
			vertex -33.243595123291016 43.53001689910889 -10
			vertex -33.243595123291016 43.53001689910889 10
			vertex -30.061628341674805 46.5062530040741 10
		endloop
	endfacet
	facet normal -0.6524193553190176 0.7578581561249557 0
		outer loop
			vertex -33.243595123291016 43.53001689910889 -10
			vertex -38.637184143066406 38.886823654174805 -10
			vertex -33.243595123291016 43.53001689910889 10
		endloop
	endfacet
	facet normal -0.6524193553190176 0.7578581561249557 0
		outer loop
			vertex -38.637184143066406 38.886823654174805 -10
			vertex -38.637184143066406 38.886823654174805 10
			vertex -33.243595123291016 43.53001689910889 10
		endloop
	endfacet
	facet normal -0.6394668073816931 0.7688187057148549 0
		outer loop
			vertex -38.637184143066406 38.886823654174805 -10
			vertex -41.5150260925293 36.49317169189453 -10
			vertex -38.637184143066406 38.886823654174805 10
		endloop
	endfacet
	facet normal -0.6394668073816931 0.7688187057148549 0
		outer loop
			vertex -41.5150260925293 36.49317169189453 -10
			vertex -41.5150260925293 36.49317169189453 10
			vertex -38.637184143066406 38.886823654174805 10
		endloop
	endfacet
	facet normal -0.6782422799207682 0.7348383561899027 0
		outer loop
			vertex -41.5150260925293 36.49317169189453 -10
			vertex -44.18619918823242 34.02772808074951 -10
			vertex -41.5150260925293 36.49317169189453 10
		endloop
	endfacet
	facet normal -0.6782422799207682 0.7348383561899027 0
		outer loop
			vertex -44.18619918823242 34.02772808074951 -10
			vertex -44.18619918823242 34.02772808074951 10
			vertex -41.5150260925293 36.49317169189453 10
		endloop
	endfacet
	facet normal -0.5954910145041937 0.8033619680099168 0
		outer loop
			vertex -44.18619918823242 34.02772808074951 -10
			vertex -47.36293411254883 31.672977447509766 -10
			vertex -44.18619918823242 34.02772808074951 10
		endloop
	endfacet
	facet normal -0.5954910145041937 0.8033619680099168 0
		outer loop
			vertex -47.36293411254883 31.672977447509766 -10
			vertex -47.36293411254883 31.672977447509766 10
			vertex -44.18619918823242 34.02772808074951 10
		endloop
	endfacet
	facet normal -0.7852939986368179 -0.6191230376144934 0
		outer loop
			vertex -47.36293411254883 31.672977447509766 -10
			vertex -45.058956146240234 28.75061798095703 -10
			vertex -47.36293411254883 31.672977447509766 10
		endloop
	endfacet
	facet normal -0.7852939986368179 -0.6191230376144934 0
		outer loop
			vertex -45.058956146240234 28.75061798095703 -10
			vertex -45.058956146240234 28.75061798095703 10
			vertex -47.36293411254883 31.672977447509766 10
		endloop
	endfacet
	facet normal -0.6513482304347479 -0.7587789419254612 0
		outer loop
			vertex -45.058956146240234 28.75061798095703 -10
			vertex -40.123836517333984 24.514230728149414 -10
			vertex -45.058956146240234 28.75061798095703 10
		endloop
	endfacet
	facet normal -0.6513482304347479 -0.7587789419254612 0
		outer loop
			vertex -40.123836517333984 24.514230728149414 -10
			vertex -40.123836517333984 24.514230728149414 10
			vertex -45.058956146240234 28.75061798095703 10
		endloop
	endfacet
	facet normal -0.6337983842984979 -0.7734982922157059 0
		outer loop
			vertex -40.123836517333984 24.514230728149414 -10
			vertex -34.878456115722656 20.21620750427246 -10
			vertex -40.123836517333984 24.514230728149414 10
		endloop
	endfacet
	facet normal -0.6337983842984979 -0.7734982922157059 0
		outer loop
			vertex -34.878456115722656 20.21620750427246 -10
			vertex -34.878456115722656 20.21620750427246 10
			vertex -40.123836517333984 24.514230728149414 10
		endloop
	endfacet
	facet normal -0.7071046495869915 -0.7071089127796779 0
		outer loop
			vertex -34.878456115722656 20.21620750427246 -10
			vertex -31.71485710144043 17.052627563476562 -10
			vertex -34.878456115722656 20.21620750427246 10
		endloop
	endfacet
	facet normal -0.7071046495869915 -0.7071089127796779 0
		outer loop
			vertex -31.71485710144043 17.052627563476562 -10
			vertex -31.71485710144043 17.052627563476562 10
			vertex -34.878456115722656 20.21620750427246 10
		endloop
	endfacet
	facet normal -0.778252845825376 -0.6279510394646256 0
		outer loop
			vertex -31.71485710144043 17.052627563476562 -10
			vertex -29.565670013427734 14.389026641845703 -10
			vertex -31.71485710144043 17.052627563476562 10
		endloop
	endfacet
	facet normal -0.778252845825376 -0.6279510394646256 0
		outer loop
			vertex -29.565670013427734 14.389026641845703 -10
			vertex -29.565670013427734 14.389026641845703 10
			vertex -31.71485710144043 17.052627563476562 10
		endloop
	endfacet
	facet normal -0.8382867006671137 -0.5452296832387659 0
		outer loop
			vertex -29.565670013427734 14.389026641845703 -10
			vertex -27.7861270904541 11.652992248535156 -10
			vertex -29.565670013427734 14.389026641845703 10
		endloop
	endfacet
	facet normal -0.8382867006671137 -0.5452296832387659 0
		outer loop
			vertex -27.7861270904541 11.652992248535156 -10
			vertex -27.7861270904541 11.652992248535156 10
			vertex -29.565670013427734 14.389026641845703 10
		endloop
	endfacet
	facet normal 0.37844833023532093 -0.9256224183445956 0
		outer loop
			vertex -27.7861270904541 11.652992248535156 -10
			vertex -22.6042423248291 13.771648406982422 -10
			vertex -27.7861270904541 11.652992248535156 10
		endloop
	endfacet
	facet normal 0.37844833023532093 -0.9256224183445956 0
		outer loop
			vertex -22.6042423248291 13.771648406982422 -10
			vertex -22.6042423248291 13.771648406982422 10
			vertex -27.7861270904541 11.652992248535156 10
		endloop
	endfacet
	facet normal 0.5409044395349909 -0.8410840548312264 0
		outer loop
			vertex -22.6042423248291 13.771648406982422 -10
			vertex -17.83070945739746 16.84152603149414 -10
			vertex -22.6042423248291 13.771648406982422 10
		endloop
	endfacet
	facet normal 0.5409044395349909 -0.8410840548312264 0
		outer loop
			vertex -17.83070945739746 16.84152603149414 -10
			vertex -17.83070945739746 16.84152603149414 10
			vertex -22.6042423248291 13.771648406982422 10
		endloop
	endfacet
	facet normal 0.5312997644008067 -0.8471838999577643 0
		outer loop
			vertex -17.83070945739746 16.84152603149414 -10
			vertex -11.66077995300293 20.710912704467773 -10
			vertex -17.83070945739746 16.84152603149414 10
		endloop
	endfacet
	facet normal 0.5312997644008067 -0.8471838999577643 0
		outer loop
			vertex -11.66077995300293 20.710912704467773 -10
			vertex -11.66077995300293 20.710912704467773 10
			vertex -17.83070945739746 16.84152603149414 10
		endloop
	endfacet
	facet normal 0.5537198221774771 -0.8327030434240908 0
		outer loop
			vertex -11.66077995300293 20.710912704467773 -10
			vertex -7.201898574829102 23.675920486450195 -10
			vertex -11.66077995300293 20.710912704467773 10
		endloop
	endfacet
	facet normal 0.5537198221774771 -0.8327030434240908 0
		outer loop
			vertex -7.201898574829102 23.675920486450195 -10
			vertex -7.201898574829102 23.675920486450195 10
			vertex -11.66077995300293 20.710912704467773 10
		endloop
	endfacet
	facet normal 0.5672310582247857 -0.8235586965026778 0
		outer loop
			vertex -7.201898574829102 23.675920486450195 -10
			vertex -1.0756263732910156 27.895427703857422 -10
			vertex -7.201898574829102 23.675920486450195 10
		endloop
	endfacet
	facet normal 0.5672310582247857 -0.8235586965026778 0
		outer loop
			vertex -1.0756263732910156 27.895427703857422 -10
			vertex -1.0756263732910156 27.895427703857422 10
			vertex -7.201898574829102 23.675920486450195 10
		endloop
	endfacet
	facet normal 0.5730230897027162 -0.8195392233856491 0
		outer loop
			vertex -1.0756263732910156 27.895427703857422 -10
			vertex 4.378467559814453 31.708938598632812 -10
			vertex -1.0756263732910156 27.895427703857422 10
		endloop
	endfacet
	facet normal 0.5730230897027162 -0.8195392233856491 0
		outer loop
			vertex 4.378467559814453 31.708938598632812 -10
			vertex 4.378467559814453 31.708938598632812 10
			vertex -1.0756263732910156 27.895427703857422 10
		endloop
	endfacet
	facet normal 0.5486649728014146 -0.836042312099587 0
		outer loop
			vertex 4.378467559814453 31.708938598632812 -10
			vertex 8.250960350036621 34.25031852722168 -10
			vertex 4.378467559814453 31.708938598632812 10
		endloop
	endfacet
	facet normal 0.5486649728014146 -0.836042312099587 0
		outer loop
			vertex 8.250960350036621 34.25031852722168 -10
			vertex 8.250960350036621 34.25031852722168 10
			vertex 4.378467559814453 31.708938598632812 10
		endloop
	endfacet
	facet normal 0.47852911381810526 -0.878071686839098 0
		outer loop
			vertex 8.250960350036621 34.25031852722168 -10
			vertex 12.168842315673828 36.385475158691406 -10
			vertex 8.250960350036621 34.25031852722168 10
		endloop
	endfacet
	facet normal 0.47852911381810526 -0.878071686839098 0
		outer loop
			vertex 12.168842315673828 36.385475158691406 -10
			vertex 12.168842315673828 36.385475158691406 10
			vertex 8.250960350036621 34.25031852722168 10
		endloop
	endfacet
	facet normal 0.5087095244756001 -0.8609382206104041 0
		outer loop
			vertex 12.168842315673828 36.385475158691406 -10
			vertex 17.542545318603516 39.560678482055664 -10
			vertex 12.168842315673828 36.385475158691406 10
		endloop
	endfacet
	facet normal 0.5087095244756001 -0.8609382206104041 0
		outer loop
			vertex 17.542545318603516 39.560678482055664 -10
			vertex 17.542545318603516 39.560678482055664 10
			vertex 12.168842315673828 36.385475158691406 10
		endloop
	endfacet
	facet normal 0.6054029956639184 -0.7959190994323192 0
		outer loop
			vertex 17.542545318603516 39.560678482055664 -10
			vertex 22.385204315185547 43.244168758392334 -10
			vertex 17.542545318603516 39.560678482055664 10
		endloop
	endfacet
	facet normal 0.6054029956639184 -0.7959190994323192 0
		outer loop
			vertex 22.385204315185547 43.244168758392334 -10
			vertex 22.385204315185547 43.244168758392334 10
			vertex 17.542545318603516 39.560678482055664 10
		endloop
	endfacet
	facet normal 0.6295539929614221 -0.7769567362127249 0
		outer loop
			vertex 22.385204315185547 43.244168758392334 -10
			vertex 25.9152889251709 46.10453248023987 -10
			vertex 22.385204315185547 43.244168758392334 10
		endloop
	endfacet
	facet normal 0.6295539929614221 -0.7769567362127249 0
		outer loop
			vertex 25.9152889251709 46.10453248023987 -10
			vertex 25.9152889251709 46.10453248023987 10
			vertex 22.385204315185547 43.244168758392334 10
		endloop
	endfacet
	facet normal 0.7071069549021198 -0.7071066074709327 0
		outer loop
			vertex 25.9152889251709 46.10453248023987 -10
			vertex 28.5841064453125 48.773351311683655 -10
			vertex 25.9152889251709 46.10453248023987 10
		endloop
	endfacet
	facet normal 0.7071069549021198 -0.7071066074709327 0
		outer loop
			vertex 28.5841064453125 48.773351311683655 -10
			vertex 28.5841064453125 48.773351311683655 10
			vertex 25.9152889251709 46.10453248023987 10
		endloop
	endfacet
	facet normal 0.683688495099211 -0.729773966149092 0
		outer loop
			vertex 28.5841064453125 48.773351311683655 -10
			vertex 31.84233856201172 51.82582497596741 -10
			vertex 28.5841064453125 48.773351311683655 10
		endloop
	endfacet
	facet normal 0.683688495099211 -0.729773966149092 0
		outer loop
			vertex 31.84233856201172 51.82582497596741 -10
			vertex 31.84233856201172 51.82582497596741 10
			vertex 28.5841064453125 48.773351311683655 10
		endloop
	endfacet
	facet normal 0.7431750021669316 -0.6690970902299466 0
		outer loop
			vertex 31.84233856201172 51.82582497596741 -10
			vertex 35.06475830078125 55.405009269714355 -10
			vertex 31.84233856201172 51.82582497596741 10
		endloop
	endfacet
	facet normal 0.7431750021669316 -0.6690970902299466 0
		outer loop
			vertex 35.06475830078125 55.405009269714355 -10
			vertex 35.06475830078125 55.405009269714355 10
			vertex 31.84233856201172 51.82582497596741 10
		endloop
	endfacet
	facet normal 0.7225717254290377 -0.691295958045831 0
		outer loop
			vertex 35.06475830078125 55.405009269714355 -10
			vertex 37.54988098144531 58.002564430236816 -10
			vertex 35.06475830078125 55.405009269714355 10
		endloop
	endfacet
	facet normal 0.7225717254290377 -0.691295958045831 0
		outer loop
			vertex 37.54988098144531 58.002564430236816 -10
			vertex 37.54988098144531 58.002564430236816 10
			vertex 35.06475830078125 55.405009269714355 10
		endloop
	endfacet
	facet normal 0.7204682815872798 -0.693487891189653 0
		outer loop
			vertex 37.54988098144531 58.002564430236816 -10
			vertex 41.35643005371094 61.95720863342285 -10
			vertex 37.54988098144531 58.002564430236816 10
		endloop
	endfacet
	facet normal 0.7204682815872798 -0.693487891189653 0
		outer loop
			vertex 41.35643005371094 61.95720863342285 -10
			vertex 41.35643005371094 61.95720863342285 10
			vertex 37.54988098144531 58.002564430236816 10
		endloop
	endfacet
	facet normal 0.7298114931279281 -0.6836484363314117 0
		outer loop
			vertex 41.35643005371094 61.95720863342285 -10
			vertex 44.40361785888672 65.21015644073486 -10
			vertex 41.35643005371094 61.95720863342285 10
		endloop
	endfacet
	facet normal 0.7298114931279281 -0.6836484363314117 0
		outer loop
			vertex 44.40361785888672 65.21015644073486 -10
			vertex 44.40361785888672 65.21015644073486 10
			vertex 41.35643005371094 61.95720863342285 10
		endloop
	endfacet
	facet normal 0.7905903273790346 -0.6123454370326533 0
		outer loop
			vertex 44.40361785888672 65.21015644073486 -10
			vertex 47.36293029785156 69.03088188171387 -10
			vertex 44.40361785888672 65.21015644073486 10
		endloop
	endfacet
	facet normal 0.7905903273790346 -0.6123454370326533 0
		outer loop
			vertex 47.36293029785156 69.03088188171387 -10
			vertex 47.36293029785156 69.03088188171387 10
			vertex 44.40361785888672 65.21015644073486 10
		endloop
	endfacet
	facet normal 0.9137281805346158 0.40632599239637696 0
		outer loop
			vertex 47.36293029785156 69.03088188171387 -10
			vertex 45.539306640625 73.13176727294922 -10
			vertex 47.36293029785156 69.03088188171387 10
		endloop
	endfacet
	facet normal 0.9137281805346158 0.40632599239637696 0
		outer loop
			vertex 45.539306640625 73.13176727294922 -10
			vertex 45.539306640625 73.13176727294922 10
			vertex 47.36293029785156 69.03088188171387 10
		endloop
	endfacet
	facet normal 0.5949621556813196 0.8037537143348312 0
		outer loop
			vertex 45.539306640625 73.13176727294922 -10
			vertex 42.96316909790039 75.03870010375977 -10
			vertex 45.539306640625 73.13176727294922 10
		endloop
	endfacet
	facet normal 0.5949621556813196 0.8037537143348312 0
		outer loop
			vertex 42.96316909790039 75.03870010375977 -10
			vertex 42.96316909790039 75.03870010375977 10
			vertex 45.539306640625 73.13176727294922 10
		endloop
	endfacet
	facet normal 0.5999972239867852 0.8000020820023855 0
		outer loop
			vertex 42.96316909790039 75.03870010375977 -10
			vertex 39.97297668457031 77.28132820129395 -10
			vertex 42.96316909790039 75.03870010375977 10
		endloop
	endfacet
	facet normal 0.5999972239867852 0.8000020820023855 0
		outer loop
			vertex 39.97297668457031 77.28132820129395 -10
			vertex 39.97297668457031 77.28132820129395 10
			vertex 42.96316909790039 75.03870010375977 10
		endloop
	endfacet
	facet normal 0.617209083412257 0.7867991785413871 0
		outer loop
			vertex 39.97297668457031 77.28132820129395 -10
			vertex 37.02327346801758 79.59523963928223 -10
			vertex 39.97297668457031 77.28132820129395 10
		endloop
	endfacet
	facet normal 0.617209083412257 0.7867991785413871 0
		outer loop
			vertex 37.02327346801758 79.59523963928223 -10
			vertex 37.02327346801758 79.59523963928223 10
			vertex 39.97297668457031 77.28132820129395 10
		endloop
	endfacet
	facet normal 0.6622788107676475 0.7492574836517756 0
		outer loop
			vertex 37.02327346801758 79.59523963928223 -10
			vertex 33.43492126464844 82.76703262329102 -10
			vertex 37.02327346801758 79.59523963928223 10
		endloop
	endfacet
	facet normal 0.6622788107676475 0.7492574836517756 0
		outer loop
			vertex 33.43492126464844 82.76703262329102 -10
			vertex 33.43492126464844 82.76703262329102 10
			vertex 37.02327346801758 79.59523963928223 10
		endloop
	endfacet
	facet normal 0.6253282373555727 0.7803618363078582 0
		outer loop
			vertex 33.43492126464844 82.76703262329102 -10
			vertex 30.54051971435547 85.08640670776367 -10
			vertex 33.43492126464844 82.76703262329102 10
		endloop
	endfacet
	facet normal 0.6253282373555727 0.7803618363078582 0
		outer loop
			vertex 30.54051971435547 85.08640670776367 -10
			vertex 30.54051971435547 85.08640670776367 10
			vertex 33.43492126464844 82.76703262329102 10
		endloop
	endfacet
	facet normal 0.5747800246581982 0.8183079635772348 0
		outer loop
			vertex 30.54051971435547 85.08640670776367 -10
			vertex 27.632966995239258 87.1286735534668 -10
			vertex 30.54051971435547 85.08640670776367 10
		endloop
	endfacet
	facet normal 0.5747800246581982 0.8183079635772348 0
		outer loop
			vertex 27.632966995239258 87.1286735534668 -10
			vertex 27.632966995239258 87.1286735534668 10
			vertex 30.54051971435547 85.08640670776367 10
		endloop
	endfacet
	facet normal 0.9426955159425457 -0.33365425850993935 0
		outer loop
			vertex 27.632966995239258 87.1286735534668 -10
			vertex 28.064178466796875 88.34700393676758 -10
			vertex 27.632966995239258 87.1286735534668 10
		endloop
	endfacet
	facet normal 0.9426955159425457 -0.33365425850993935 0
		outer loop
			vertex 28.064178466796875 88.34700393676758 -10
			vertex 28.064178466796875 88.34700393676758 10
			vertex 27.632966995239258 87.1286735534668 10
		endloop
	endfacet
	facet normal -0.6463745135880976 0.7630203065343348 0
		outer loop
			vertex 28.064178466796875 88.34700393676758 -10
			vertex 20.332002639770508 81.796875 -10
			vertex 28.064178466796875 88.34700393676758 10
		endloop
	endfacet
	facet normal -0.6463745135880976 0.7630203065343348 0
		outer loop
			vertex 20.332002639770508 81.796875 -10
			vertex 20.332002639770508 81.796875 10
			vertex 28.064178466796875 88.34700393676758 10
		endloop
	endfacet
	facet normal 0 0 -1
		outer loop
			vertex -33.07639694213867 81.74247169494629 -10
			vertex -29.675216674804688 85.34938430786133 -10
			vertex -26.57054328918457 88.4540786743164 -10
		endloop
	endfacet
	facet normal 0 0 -1
		outer loop
			vertex -43.72089385986328 72.23063278198242 -10
			vertex -40.865577697753906 74.61292457580566 -10
			vertex -38.32497787475586 76.56073760986328 -10
		endloop
	endfacet
	facet normal 0 0 -1
		outer loop
			vertex -50.21402359008789 63.814826011657715 -10
			vertex -49.531097412109375 67.62944793701172 -10
			vertex -43.72089385986328 72.23063278198242 -10
		endloop
	endfacet
	facet normal 0 0 -1
		outer loop
			vertex -40.49773025512695 55.85474920272827 -10
			vertex -44.301292419433594 58.70742702484131 -10
			vertex -47.63488006591797 61.64717388153076 -10
		endloop
	endfacet
	facet normal 0 0 -1
		outer loop
			vertex -32.69728469848633 49.92367651313543 -10
			vertex -37.0982551574707 52.99649524688721 -10
			vertex -40.49773025512695 55.85474920272827 -10
		endloop
	endfacet
	facet normal 0 0 -1
		outer loop
			vertex -24.40157699584961 44.822794914245605 -10
			vertex -28.227869033813477 47.06387805938721 -10
			vertex -32.69728469848633 49.92367651313543 -10
		endloop
	endfacet
	facet normal 0 0 -1
		outer loop
			vertex -12.722131729125977 38.18039894104004 -10
			vertex -16.505990982055664 40.059547424316406 -10
			vertex -19.64231300354004 41.96725368499756 -10
		endloop
	endfacet
	facet normal 0 0 -1
		outer loop
			vertex 6.537145137786865 27.04148292541504 -10
			vertex -0.048312943428754807 30.786970138549805 -10
			vertex -5.945496082305908 34.264899253845215 -10
		endloop
	endfacet
	facet normal 0 0 -1
		outer loop
			vertex 13.3041353225708 23.050857543945312 -10
			vertex 9.784479141235352 25.06680679321289 -10
			vertex 6.537145137786865 27.04148292541504 -10
		endloop
	endfacet
	facet normal 0 0 -1
		outer loop
			vertex 20.061750411987305 18.389257431030273 -10
			vertex 19.05278968811035 19.003171920776367 -10
			vertex 13.3041353225708 23.050857543945312 -10
		endloop
	endfacet
	facet normal 0 0 -1
		outer loop
			vertex 27.573101043701172 12.44601821899414 -10
			vertex 24.346864700317383 15.13088607788086 -10
			vertex 21.35557746887207 17.673755645751953 -10
		endloop
	endfacet
	facet normal 0 0 -1
		outer loop
			vertex 35.02809143066406 8.900421142578125 -10
			vertex 31.4897403717041 9.271549224853516 -10
			vertex 27.573101043701172 12.44601821899414 -10
		endloop
	endfacet
	facet normal 0 0 -1
		outer loop
			vertex 40.558265686035156 15.665206909179688 -10
			vertex 37.278377532958984 11.639976501464844 -10
			vertex 35.02809143066406 8.900421142578125 -10
		endloop
	endfacet
	facet normal 0 0 -1
		outer loop
			vertex 48.29021453857422 23.547351837158203 -10
			vertex 44.900264739990234 19.932092666625977 -10
			vertex 40.558265686035156 15.665206909179688 -10
		endloop
	endfacet
	facet normal 0 0 -1
		outer loop
			vertex 48.111167907714844 29.27561378479004 -10
			vertex 50.21401596069336 26.666831970214844 -10
			vertex 48.29021453857422 23.547351837158203 -10
		endloop
	endfacet
	facet normal 0 0 -1
		outer loop
			vertex 41.28675842285156 34.29867649078369 -10
			vertex 44.010921478271484 32.39097023010254 -10
			vertex 48.111167907714844 29.27561378479004 -10
		endloop
	endfacet
	facet normal 0 0 -1
		outer loop
			vertex 34.93115997314453 37.4834680557251 -10
			vertex 38.31449508666992 35.80089473724365 -10
			vertex 41.28675842285156 34.29867649078369 -10
		endloop
	endfacet
	facet normal 0 0 -1
		outer loop
			vertex 12.330803871154785 52.4473295211792 -10
			vertex 16.2045955657959 49.63995721936226 -10
			vertex 23.1820068359375 44.353954792022705 -10
		endloop
	endfacet
	facet normal 0 0 -1
		outer loop
			vertex -16.960609436035156 81.1786880493164 -10
			vertex -13.145035743713379 77.18906021118164 -10
			vertex -9.335725784301758 72.744873046875 -10
		endloop
	endfacet
	facet normal 0 0 -1
		outer loop
			vertex -26.57054328918457 88.4540786743164 -10
			vertex -24.065820693969727 91.09957504272461 -10
			vertex -21.696428298950195 86.50528717041016 -10
		endloop
	endfacet
	facet normal 0 0 -1
		outer loop
			vertex -50.21402359008789 63.814826011657715 -10
			vertex -43.72089385986328 72.23063278198242 -10
			vertex -38.32497787475586 76.56073760986328 -10
		endloop
	endfacet
	facet normal 0 0 -1
		outer loop
			vertex -40.49773025512695 55.85474920272827 -10
			vertex -47.63488006591797 61.64717388153076 -10
			vertex -50.21402359008789 63.814826011657715 -10
		endloop
	endfacet
	facet normal 0 0 -1
		outer loop
			vertex -24.40157699584961 44.822794914245605 -10
			vertex -32.69728469848633 49.92367651313543 -10
			vertex -40.49773025512695 55.85474920272827 -10
		endloop
	endfacet
	facet normal 0 0 -1
		outer loop
			vertex -12.722131729125977 38.18039894104004 -10
			vertex -19.64231300354004 41.96725368499756 -10
			vertex -24.40157699584961 44.822794914245605 -10
		endloop
	endfacet
	facet normal 0 0 -1
		outer loop
			vertex 21.35557746887207 17.673755645751953 -10
			vertex 20.061750411987305 18.389257431030273 -10
			vertex 13.3041353225708 23.050857543945312 -10
		endloop
	endfacet
	facet normal 0 0 -1
		outer loop
			vertex 35.02809143066406 8.900421142578125 -10
			vertex 27.573101043701172 12.44601821899414 -10
			vertex 21.35557746887207 17.673755645751953 -10
		endloop
	endfacet
	facet normal 0 0 -1
		outer loop
			vertex 48.111167907714844 29.27561378479004 -10
			vertex 48.29021453857422 23.547351837158203 -10
			vertex 40.558265686035156 15.665206909179688 -10
		endloop
	endfacet
	facet normal 0 0 -1
		outer loop
			vertex 34.93115997314453 37.4834680557251 -10
			vertex 41.28675842285156 34.29867649078369 -10
			vertex 48.111167907714844 29.27561378479004 -10
		endloop
	endfacet
	facet normal 0 0 -1
		outer loop
			vertex -26.57054328918457 88.4540786743164 -10
			vertex -21.696428298950195 86.50528717041016 -10
			vertex -16.960609436035156 81.1786880493164 -10
		endloop
	endfacet
	facet normal 0 0 -1
		outer loop
			vertex -50.21402359008789 63.814826011657715 -10
			vertex -38.32497787475586 76.56073760986328 -10
			vertex -35.85091781616211 78.96793365478516 -10
		endloop
	endfacet
	facet normal 0 0 -1
		outer loop
			vertex -24.40157699584961 44.822794914245605 -10
			vertex -40.49773025512695 55.85474920272827 -10
			vertex -50.21402359008789 63.814826011657715 -10
		endloop
	endfacet
	facet normal 0 0 -1
		outer loop
			vertex 35.02809143066406 8.900421142578125 -10
			vertex 21.35557746887207 17.673755645751953 -10
			vertex 13.3041353225708 23.050857543945312 -10
		endloop
	endfacet
	facet normal 0 0 -1
		outer loop
			vertex 48.111167907714844 29.27561378479004 -10
			vertex 40.558265686035156 15.665206909179688 -10
			vertex 35.02809143066406 8.900421142578125 -10
		endloop
	endfacet
	facet normal 0 0 -1
		outer loop
			vertex 31.750627517700195 38.78579616546631 -10
			vertex 34.93115997314453 37.4834680557251 -10
			vertex 48.111167907714844 29.27561378479004 -10
		endloop
	endfacet
	facet normal 0 0 -1
		outer loop
			vertex -26.57054328918457 88.4540786743164 -10
			vertex -16.960609436035156 81.1786880493164 -10
			vertex -9.335725784301758 72.744873046875 -10
		endloop
	endfacet
	facet normal 0 0 -1
		outer loop
			vertex -50.21402359008789 63.814826011657715 -10
			vertex -35.85091781616211 78.96793365478516 -10
			vertex -33.07639694213867 81.74247169494629 -10
		endloop
	endfacet
	facet normal 0 0 -1
		outer loop
			vertex -12.722131729125977 38.18039894104004 -10
			vertex -24.40157699584961 44.822794914245605 -10
			vertex -50.21402359008789 63.814826011657715 -10
		endloop
	endfacet
	facet normal 0 0 -1
		outer loop
			vertex 48.111167907714844 29.27561378479004 -10
			vertex 35.02809143066406 8.900421142578125 -10
			vertex 13.3041353225708 23.050857543945312 -10
		endloop
	endfacet
	facet normal 0 0 -1
		outer loop
			vertex -26.57054328918457 88.4540786743164 -10
			vertex -9.335725784301758 72.744873046875 -10
			vertex -3.581683397293091 66.6822738647461 -10
		endloop
	endfacet
	facet normal 0 0 -1
		outer loop
			vertex -50.21402359008789 63.814826011657715 -10
			vertex -33.07639694213867 81.74247169494629 -10
			vertex -26.57054328918457 88.4540786743164 -10
		endloop
	endfacet
	facet normal 0 0 -1
		outer loop
			vertex -5.945496082305908 34.264899253845215 -10
			vertex -12.722131729125977 38.18039894104004 -10
			vertex -50.21402359008789 63.814826011657715 -10
		endloop
	endfacet
	facet normal 0 0 -1
		outer loop
			vertex 48.111167907714844 29.27561378479004 -10
			vertex 13.3041353225708 23.050857543945312 -10
			vertex 6.537145137786865 27.04148292541504 -10
		endloop
	endfacet
	facet normal 0 0 -1
		outer loop
			vertex -26.57054328918457 88.4540786743164 -10
			vertex -3.581683397293091 66.6822738647461 -10
			vertex -1.0431294441223145 64.23240852355957 -10
		endloop
	endfacet
	facet normal 0 0 -1
		outer loop
			vertex -5.945496082305908 34.264899253845215 -10
			vertex -50.21402359008789 63.814826011657715 -10
			vertex -26.57054328918457 88.4540786743164 -10
		endloop
	endfacet
	facet normal 0 0 -1
		outer loop
			vertex 48.111167907714844 29.27561378479004 -10
			vertex 6.537145137786865 27.04148292541504 -10
			vertex -5.945496082305908 34.264899253845215 -10
		endloop
	endfacet
	facet normal 0 0 -1
		outer loop
			vertex -26.57054328918457 88.4540786743164 -10
			vertex -1.0431294441223145 64.23240852355957 -10
			vertex 4.2973432540893555 59.09771251678467 -10
		endloop
	endfacet
	facet normal 0 0 -1
		outer loop
			vertex 31.750627517700195 38.78579616546631 -10
			vertex 48.111167907714844 29.27561378479004 -10
			vertex -5.945496082305908 34.264899253845215 -10
		endloop
	endfacet
	facet normal 0 0 -1
		outer loop
			vertex -5.945496082305908 34.264899253845215 -10
			vertex -26.57054328918457 88.4540786743164 -10
			vertex 4.2973432540893555 59.09771251678467 -10
		endloop
	endfacet
	facet normal 0 0 -1
		outer loop
			vertex 26.77787208557129 41.80648994445801 -10
			vertex 31.750627517700195 38.78579616546631 -10
			vertex -5.945496082305908 34.264899253845215 -10
		endloop
	endfacet
	facet normal 0 0 -1
		outer loop
			vertex -5.945496082305908 34.264899253845215 -10
			vertex 4.2973432540893555 59.09771251678467 -10
			vertex 6.990349769592285 56.56320905685425 -10
		endloop
	endfacet
	facet normal 0 0 -1
		outer loop
			vertex 23.1820068359375 44.353954792022705 -10
			vertex 26.77787208557129 41.80648994445801 -10
			vertex -5.945496082305908 34.264899253845215 -10
		endloop
	endfacet
	facet normal 0 0 -1
		outer loop
			vertex -5.945496082305908 34.264899253845215 -10
			vertex 6.990349769592285 56.56320905685425 -10
			vertex 12.330803871154785 52.4473295211792 -10
		endloop
	endfacet
	facet normal 0 0 -1
		outer loop
			vertex 12.330803871154785 52.4473295211792 -10
			vertex 23.1820068359375 44.353954792022705 -10
			vertex -5.945496082305908 34.264899253845215 -10
		endloop
	endfacet
	facet normal 0 0 1
		outer loop
			vertex -26.57054328918457 88.4540786743164 10
			vertex -29.675216674804688 85.34938430786133 10
			vertex -33.07639694213867 81.74247169494629 10
		endloop
	endfacet
	facet normal 0 0 1
		outer loop
			vertex -38.32497787475586 76.56073760986328 10
			vertex -40.865577697753906 74.61292457580566 10
			vertex -43.72089385986328 72.23063278198242 10
		endloop
	endfacet
	facet normal 0 0 1
		outer loop
			vertex -43.72089385986328 72.23063278198242 10
			vertex -49.531097412109375 67.62944793701172 10
			vertex -50.21402359008789 63.814826011657715 10
		endloop
	endfacet
	facet normal 0 0 1
		outer loop
			vertex -47.63488006591797 61.64717388153076 10
			vertex -44.301292419433594 58.70742702484131 10
			vertex -40.49773025512695 55.85474920272827 10
		endloop
	endfacet
	facet normal 0 0 1
		outer loop
			vertex -40.49773025512695 55.85474920272827 10
			vertex -37.0982551574707 52.99649524688721 10
			vertex -32.69728469848633 49.92367651313543 10
		endloop
	endfacet
	facet normal 0 0 1
		outer loop
			vertex -32.69728469848633 49.92367651313543 10
			vertex -28.227869033813477 47.06387805938721 10
			vertex -24.40157699584961 44.822794914245605 10
		endloop
	endfacet
	facet normal 0 0 1
		outer loop
			vertex -19.64231300354004 41.96725368499756 10
			vertex -16.505990982055664 40.059547424316406 10
			vertex -12.722131729125977 38.18039894104004 10
		endloop
	endfacet
	facet normal 0 0 1
		outer loop
			vertex -5.945496082305908 34.264899253845215 10
			vertex -0.048312943428754807 30.786970138549805 10
			vertex 6.537145137786865 27.04148292541504 10
		endloop
	endfacet
	facet normal 0 0 1
		outer loop
			vertex 6.537145137786865 27.04148292541504 10
			vertex 9.784479141235352 25.06680679321289 10
			vertex 13.3041353225708 23.050857543945312 10
		endloop
	endfacet
	facet normal 0 0 1
		outer loop
			vertex 13.3041353225708 23.050857543945312 10
			vertex 19.05278968811035 19.003171920776367 10
			vertex 20.061750411987305 18.389257431030273 10
		endloop
	endfacet
	facet normal 0 0 1
		outer loop
			vertex 21.35557746887207 17.673755645751953 10
			vertex 24.346864700317383 15.13088607788086 10
			vertex 27.573101043701172 12.44601821899414 10
		endloop
	endfacet
	facet normal 0 0 1
		outer loop
			vertex 27.573101043701172 12.44601821899414 10
			vertex 31.4897403717041 9.271549224853516 10
			vertex 35.02809143066406 8.900421142578125 10
		endloop
	endfacet
	facet normal 0 0 1
		outer loop
			vertex 35.02809143066406 8.900421142578125 10
			vertex 37.278377532958984 11.639976501464844 10
			vertex 40.558265686035156 15.665206909179688 10
		endloop
	endfacet
	facet normal 0 0 1
		outer loop
			vertex 40.558265686035156 15.665206909179688 10
			vertex 44.900264739990234 19.932092666625977 10
			vertex 48.29021453857422 23.547351837158203 10
		endloop
	endfacet
	facet normal 0 0 1
		outer loop
			vertex 48.29021453857422 23.547351837158203 10
			vertex 50.21401596069336 26.666831970214844 10
			vertex 48.111167907714844 29.27561378479004 10
		endloop
	endfacet
	facet normal 0 0 1
		outer loop
			vertex 48.111167907714844 29.27561378479004 10
			vertex 44.010921478271484 32.39097023010254 10
			vertex 41.28675842285156 34.29867649078369 10
		endloop
	endfacet
	facet normal 0 0 1
		outer loop
			vertex 41.28675842285156 34.29867649078369 10
			vertex 38.31449508666992 35.80089473724365 10
			vertex 34.93115997314453 37.4834680557251 10
		endloop
	endfacet
	facet normal 0 0 1
		outer loop
			vertex 23.1820068359375 44.353954792022705 10
			vertex 16.2045955657959 49.63995721936226 10
			vertex 12.330803871154785 52.4473295211792 10
		endloop
	endfacet
	facet normal 0 0 1
		outer loop
			vertex -9.335725784301758 72.744873046875 10
			vertex -13.145035743713379 77.18906021118164 10
			vertex -16.960609436035156 81.1786880493164 10
		endloop
	endfacet
	facet normal 0 0 1
		outer loop
			vertex -21.696428298950195 86.50528717041016 10
			vertex -24.065820693969727 91.09957504272461 10
			vertex -26.57054328918457 88.4540786743164 10
		endloop
	endfacet
	facet normal 0 0 1
		outer loop
			vertex -38.32497787475586 76.56073760986328 10
			vertex -43.72089385986328 72.23063278198242 10
			vertex -50.21402359008789 63.814826011657715 10
		endloop
	endfacet
	facet normal 0 0 1
		outer loop
			vertex -50.21402359008789 63.814826011657715 10
			vertex -47.63488006591797 61.64717388153076 10
			vertex -40.49773025512695 55.85474920272827 10
		endloop
	endfacet
	facet normal 0 0 1
		outer loop
			vertex -40.49773025512695 55.85474920272827 10
			vertex -32.69728469848633 49.92367651313543 10
			vertex -24.40157699584961 44.822794914245605 10
		endloop
	endfacet
	facet normal 0 0 1
		outer loop
			vertex -24.40157699584961 44.822794914245605 10
			vertex -19.64231300354004 41.96725368499756 10
			vertex -12.722131729125977 38.18039894104004 10
		endloop
	endfacet
	facet normal 0 0 1
		outer loop
			vertex 13.3041353225708 23.050857543945312 10
			vertex 20.061750411987305 18.389257431030273 10
			vertex 21.35557746887207 17.673755645751953 10
		endloop
	endfacet
	facet normal 0 0 1
		outer loop
			vertex 21.35557746887207 17.673755645751953 10
			vertex 27.573101043701172 12.44601821899414 10
			vertex 35.02809143066406 8.900421142578125 10
		endloop
	endfacet
	facet normal 0 0 1
		outer loop
			vertex 40.558265686035156 15.665206909179688 10
			vertex 48.29021453857422 23.547351837158203 10
			vertex 48.111167907714844 29.27561378479004 10
		endloop
	endfacet
	facet normal 0 0 1
		outer loop
			vertex 48.111167907714844 29.27561378479004 10
			vertex 41.28675842285156 34.29867649078369 10
			vertex 34.93115997314453 37.4834680557251 10
		endloop
	endfacet
	facet normal 0 0 1
		outer loop
			vertex -16.960609436035156 81.1786880493164 10
			vertex -21.696428298950195 86.50528717041016 10
			vertex -26.57054328918457 88.4540786743164 10
		endloop
	endfacet
	facet normal 0 0 1
		outer loop
			vertex -35.85091781616211 78.96793365478516 10
			vertex -38.32497787475586 76.56073760986328 10
			vertex -50.21402359008789 63.814826011657715 10
		endloop
	endfacet
	facet normal 0 0 1
		outer loop
			vertex -50.21402359008789 63.814826011657715 10
			vertex -40.49773025512695 55.85474920272827 10
			vertex -24.40157699584961 44.822794914245605 10
		endloop
	endfacet
	facet normal 0 0 1
		outer loop
			vertex 13.3041353225708 23.050857543945312 10
			vertex 21.35557746887207 17.673755645751953 10
			vertex 35.02809143066406 8.900421142578125 10
		endloop
	endfacet
	facet normal 0 0 1
		outer loop
			vertex 35.02809143066406 8.900421142578125 10
			vertex 40.558265686035156 15.665206909179688 10
			vertex 48.111167907714844 29.27561378479004 10
		endloop
	endfacet
	facet normal 0 0 1
		outer loop
			vertex 48.111167907714844 29.27561378479004 10
			vertex 34.93115997314453 37.4834680557251 10
			vertex 31.750627517700195 38.78579616546631 10
		endloop
	endfacet
	facet normal 0 0 1
		outer loop
			vertex -9.335725784301758 72.744873046875 10
			vertex -16.960609436035156 81.1786880493164 10
			vertex -26.57054328918457 88.4540786743164 10
		endloop
	endfacet
	facet normal 0 0 1
		outer loop
			vertex -33.07639694213867 81.74247169494629 10
			vertex -35.85091781616211 78.96793365478516 10
			vertex -50.21402359008789 63.814826011657715 10
		endloop
	endfacet
	facet normal 0 0 1
		outer loop
			vertex -50.21402359008789 63.814826011657715 10
			vertex -24.40157699584961 44.822794914245605 10
			vertex -12.722131729125977 38.18039894104004 10
		endloop
	endfacet
	facet normal 0 0 1
		outer loop
			vertex 13.3041353225708 23.050857543945312 10
			vertex 35.02809143066406 8.900421142578125 10
			vertex 48.111167907714844 29.27561378479004 10
		endloop
	endfacet
	facet normal 0 0 1
		outer loop
			vertex -3.581683397293091 66.6822738647461 10
			vertex -9.335725784301758 72.744873046875 10
			vertex -26.57054328918457 88.4540786743164 10
		endloop
	endfacet
	facet normal 0 0 1
		outer loop
			vertex -26.57054328918457 88.4540786743164 10
			vertex -33.07639694213867 81.74247169494629 10
			vertex -50.21402359008789 63.814826011657715 10
		endloop
	endfacet
	facet normal 0 0 1
		outer loop
			vertex -50.21402359008789 63.814826011657715 10
			vertex -12.722131729125977 38.18039894104004 10
			vertex -5.945496082305908 34.264899253845215 10
		endloop
	endfacet
	facet normal 0 0 1
		outer loop
			vertex 6.537145137786865 27.04148292541504 10
			vertex 13.3041353225708 23.050857543945312 10
			vertex 48.111167907714844 29.27561378479004 10
		endloop
	endfacet
	facet normal 0 0 1
		outer loop
			vertex -1.0431294441223145 64.23240852355957 10
			vertex -3.581683397293091 66.6822738647461 10
			vertex -26.57054328918457 88.4540786743164 10
		endloop
	endfacet
	facet normal 0 0 1
		outer loop
			vertex -26.57054328918457 88.4540786743164 10
			vertex -50.21402359008789 63.814826011657715 10
			vertex -5.945496082305908 34.264899253845215 10
		endloop
	endfacet
	facet normal 0 0 1
		outer loop
			vertex -5.945496082305908 34.264899253845215 10
			vertex 6.537145137786865 27.04148292541504 10
			vertex 48.111167907714844 29.27561378479004 10
		endloop
	endfacet
	facet normal 0 0 1
		outer loop
			vertex 4.2973432540893555 59.09771251678467 10
			vertex -1.0431294441223145 64.23240852355957 10
			vertex -26.57054328918457 88.4540786743164 10
		endloop
	endfacet
	facet normal 0 0 1
		outer loop
			vertex -5.945496082305908 34.264899253845215 10
			vertex 48.111167907714844 29.27561378479004 10
			vertex 31.750627517700195 38.78579616546631 10
		endloop
	endfacet
	facet normal 0 0 1
		outer loop
			vertex 4.2973432540893555 59.09771251678467 10
			vertex -26.57054328918457 88.4540786743164 10
			vertex -5.945496082305908 34.264899253845215 10
		endloop
	endfacet
	facet normal 0 0 1
		outer loop
			vertex -5.945496082305908 34.264899253845215 10
			vertex 31.750627517700195 38.78579616546631 10
			vertex 26.77787208557129 41.80648994445801 10
		endloop
	endfacet
	facet normal 0 0 1
		outer loop
			vertex 6.990349769592285 56.56320905685425 10
			vertex 4.2973432540893555 59.09771251678467 10
			vertex -5.945496082305908 34.264899253845215 10
		endloop
	endfacet
	facet normal 0 0 1
		outer loop
			vertex -5.945496082305908 34.264899253845215 10
			vertex 26.77787208557129 41.80648994445801 10
			vertex 23.1820068359375 44.353954792022705 10
		endloop
	endfacet
	facet normal 0 0 1
		outer loop
			vertex 12.330803871154785 52.4473295211792 10
			vertex 6.990349769592285 56.56320905685425 10
			vertex -5.945496082305908 34.264899253845215 10
		endloop
	endfacet
	facet normal 0 0 1
		outer loop
			vertex -5.945496082305908 34.264899253845215 10
			vertex 23.1820068359375 44.353954792022705 10
			vertex 12.330803871154785 52.4473295211792 10
		endloop
	endfacet
	facet normal -0.7071091704258717 0.7071043919391503 0
		outer loop
			vertex -26.57054328918457 88.4540786743164 -10
			vertex -29.675216674804688 85.34938430786133 -10
			vertex -26.57054328918457 88.4540786743164 10
		endloop
	endfacet
	facet normal -0.7071091704258717 0.7071043919391503 0
		outer loop
			vertex -29.675216674804688 85.34938430786133 -10
			vertex -29.675216674804688 85.34938430786133 10
			vertex -26.57054328918457 88.4540786743164 10
		endloop
	endfacet
	facet normal -0.7275514537825234 0.6860531190067841 0
		outer loop
			vertex -29.675216674804688 85.34938430786133 -10
			vertex -33.07639694213867 81.74247169494629 -10
			vertex -29.675216674804688 85.34938430786133 10
		endloop
	endfacet
	facet normal -0.7275514537825234 0.6860531190067841 0
		outer loop
			vertex -33.07639694213867 81.74247169494629 -10
			vertex -33.07639694213867 81.74247169494629 10
			vertex -29.675216674804688 85.34938430786133 10
		endloop
	endfacet
	facet normal -0.7071089686337857 0.7071045937325425 0
		outer loop
			vertex -33.07639694213867 81.74247169494629 -10
			vertex -35.85091781616211 78.96793365478516 -10
			vertex -33.07639694213867 81.74247169494629 10
		endloop
	endfacet
	facet normal -0.7071089686337857 0.7071045937325425 0
		outer loop
			vertex -35.85091781616211 78.96793365478516 -10
			vertex -35.85091781616211 78.96793365478516 10
			vertex -33.07639694213867 81.74247169494629 10
		endloop
	endfacet
	facet normal -0.6973553280327892 0.7167255726317299 0
		outer loop
			vertex -35.85091781616211 78.96793365478516 -10
			vertex -38.32497787475586 76.56073760986328 -10
			vertex -35.85091781616211 78.96793365478516 10
		endloop
	endfacet
	facet normal -0.6973553280327892 0.7167255726317299 0
		outer loop
			vertex -38.32497787475586 76.56073760986328 -10
			vertex -38.32497787475586 76.56073760986328 10
			vertex -35.85091781616211 78.96793365478516 10
		endloop
	endfacet
	facet normal -0.6084354461320786 0.7936033693792252 0
		outer loop
			vertex -38.32497787475586 76.56073760986328 -10
			vertex -40.865577697753906 74.61292457580566 -10
			vertex -38.32497787475586 76.56073760986328 10
		endloop
	endfacet
	facet normal -0.6084354461320786 0.7936033693792252 0
		outer loop
			vertex -40.865577697753906 74.61292457580566 -10
			vertex -40.865577697753906 74.61292457580566 10
			vertex -38.32497787475586 76.56073760986328 10
		endloop
	endfacet
	facet normal -0.6406384474471993 0.7678426789730057 0
		outer loop
			vertex -40.865577697753906 74.61292457580566 -10
			vertex -43.72089385986328 72.23063278198242 -10
			vertex -40.865577697753906 74.61292457580566 10
		endloop
	endfacet
	facet normal -0.6406384474471993 0.7678426789730057 0
		outer loop
			vertex -43.72089385986328 72.23063278198242 -10
			vertex -43.72089385986328 72.23063278198242 10
			vertex -40.865577697753906 74.61292457580566 10
		endloop
	endfacet
	facet normal -0.6208224056811534 0.7839512361137428 0
		outer loop
			vertex -43.72089385986328 72.23063278198242 -10
			vertex -49.531097412109375 67.62944793701172 -10
			vertex -43.72089385986328 72.23063278198242 10
		endloop
	endfacet
	facet normal -0.6208224056811534 0.7839512361137428 0
		outer loop
			vertex -49.531097412109375 67.62944793701172 -10
			vertex -49.531097412109375 67.62944793701172 10
			vertex -43.72089385986328 72.23063278198242 10
		endloop
	endfacet
	facet normal -0.9843496130921247 0.17622666996054934 0
		outer loop
			vertex -49.531097412109375 67.62944793701172 -10
			vertex -50.21402359008789 63.814826011657715 -10
			vertex -49.531097412109375 67.62944793701172 10
		endloop
	endfacet
	facet normal -0.9843496130921247 0.17622666996054934 0
		outer loop
			vertex -50.21402359008789 63.814826011657715 -10
			vertex -50.21402359008789 63.814826011657715 10
			vertex -49.531097412109375 67.62944793701172 10
		endloop
	endfacet
	facet normal -0.6433959460159634 -0.765533576435563 0
		outer loop
			vertex -50.21402359008789 63.814826011657715 -10
			vertex -47.63488006591797 61.64717388153076 -10
			vertex -50.21402359008789 63.814826011657715 10
		endloop
	endfacet
	facet normal -0.6433959460159634 -0.765533576435563 0
		outer loop
			vertex -47.63488006591797 61.64717388153076 -10
			vertex -47.63488006591797 61.64717388153076 10
			vertex -50.21402359008789 63.814826011657715 10
		endloop
	endfacet
	facet normal -0.6614123761645817 -0.7500224454350163 0
		outer loop
			vertex -47.63488006591797 61.64717388153076 -10
			vertex -44.301292419433594 58.70742702484131 -10
			vertex -47.63488006591797 61.64717388153076 10
		endloop
	endfacet
	facet normal -0.6614123761645817 -0.7500224454350163 0
		outer loop
			vertex -44.301292419433594 58.70742702484131 -10
			vertex -44.301292419433594 58.70742702484131 10
			vertex -47.63488006591797 61.64717388153076 10
		endloop
	endfacet
	facet normal -0.6000008344347387 -0.799999374173266 0
		outer loop
			vertex -44.301292419433594 58.70742702484131 -10
			vertex -40.49773025512695 55.85474920272827 -10
			vertex -44.301292419433594 58.70742702484131 10
		endloop
	endfacet
	facet normal -0.6000008344347387 -0.799999374173266 0
		outer loop
			vertex -40.49773025512695 55.85474920272827 -10
			vertex -40.49773025512695 55.85474920272827 10
			vertex -44.301292419433594 58.70742702484131 10
		endloop
	endfacet
	facet normal -0.6435477639829815 -0.7654059546884285 0
		outer loop
			vertex -40.49773025512695 55.85474920272827 -10
			vertex -37.0982551574707 52.99649524688721 -10
			vertex -40.49773025512695 55.85474920272827 10
		endloop
	endfacet
	facet normal -0.6435477639829815 -0.7654059546884285 0
		outer loop
			vertex -37.0982551574707 52.99649524688721 -10
			vertex -37.0982551574707 52.99649524688721 10
			vertex -40.49773025512695 55.85474920272827 10
		endloop
	endfacet
	facet normal -0.5724790722142075 -0.8199193325423911 0
		outer loop
			vertex -37.0982551574707 52.99649524688721 -10
			vertex -32.69728469848633 49.92367651313543 -10
			vertex -37.0982551574707 52.99649524688721 10
		endloop
	endfacet
	facet normal -0.5724790722142075 -0.8199193325423911 0
		outer loop
			vertex -32.69728469848633 49.92367651313543 -10
			vertex -32.69728469848633 49.92367651313543 10
			vertex -37.0982551574707 52.99649524688721 10
		endloop
	endfacet
	facet normal -0.5389697870924306 -0.8423250967420716 0
		outer loop
			vertex -32.69728469848633 49.92367651313543 -10
			vertex -28.227869033813477 47.06387805938721 -10
			vertex -32.69728469848633 49.92367651313543 10
		endloop
	endfacet
	facet normal -0.5389697870924306 -0.8423250967420716 0
		outer loop
			vertex -28.227869033813477 47.06387805938721 -10
			vertex -28.227869033813477 47.06387805938721 10
			vertex -32.69728469848633 49.92367651313543 10
		endloop
	endfacet
	facet normal -0.5053979460773507 -0.8628863865543341 0
		outer loop
			vertex -28.227869033813477 47.06387805938721 -10
			vertex -24.40157699584961 44.822794914245605 -10
			vertex -28.227869033813477 47.06387805938721 10
		endloop
	endfacet
	facet normal -0.5053979460773507 -0.8628863865543341 0
		outer loop
			vertex -24.40157699584961 44.822794914245605 -10
			vertex -24.40157699584961 44.822794914245605 10
			vertex -28.227869033813477 47.06387805938721 10
		endloop
	endfacet
	facet normal -0.5144934812442034 -0.8574942902184368 0
		outer loop
			vertex -24.40157699584961 44.822794914245605 -10
			vertex -19.64231300354004 41.96725368499756 -10
			vertex -24.40157699584961 44.822794914245605 10
		endloop
	endfacet
	facet normal -0.5144934812442034 -0.8574942902184368 0
		outer loop
			vertex -19.64231300354004 41.96725368499756 -10
			vertex -19.64231300354004 41.96725368499756 10
			vertex -24.40157699584961 44.822794914245605 10
		endloop
	endfacet
	facet normal -0.5196767364173079 -0.8543629729960538 0
		outer loop
			vertex -19.64231300354004 41.96725368499756 -10
			vertex -16.505990982055664 40.059547424316406 -10
			vertex -19.64231300354004 41.96725368499756 10
		endloop
	endfacet
	facet normal -0.5196767364173079 -0.8543629729960538 0
		outer loop
			vertex -16.505990982055664 40.059547424316406 -10
			vertex -16.505990982055664 40.059547424316406 10
			vertex -19.64231300354004 41.96725368499756 10
		endloop
	endfacet
	facet normal -0.44479173575524517 -0.89563402782824 0
		outer loop
			vertex -16.505990982055664 40.059547424316406 -10
			vertex -12.722131729125977 38.18039894104004 -10
			vertex -16.505990982055664 40.059547424316406 10
		endloop
	endfacet
	facet normal -0.44479173575524517 -0.89563402782824 0
		outer loop
			vertex -12.722131729125977 38.18039894104004 -10
			vertex -12.722131729125977 38.18039894104004 10
			vertex -16.505990982055664 40.059547424316406 10
		endloop
	endfacet
	facet normal -0.5002881544452339 -0.86585897380681 0
		outer loop
			vertex -12.722131729125977 38.18039894104004 -10
			vertex -5.945496082305908 34.264899253845215 -10
			vertex -12.722131729125977 38.18039894104004 10
		endloop
	endfacet
	facet normal -0.5002881544452339 -0.86585897380681 0
		outer loop
			vertex -5.945496082305908 34.264899253845215 -10
			vertex -5.945496082305908 34.264899253845215 10
			vertex -12.722131729125977 38.18039894104004 10
		endloop
	endfacet
	facet normal -0.5079961996788334 -0.8613593101092384 0
		outer loop
			vertex -5.945496082305908 34.264899253845215 -10
			vertex -0.048312943428754807 30.786970138549805 -10
			vertex -5.945496082305908 34.264899253845215 10
		endloop
	endfacet
	facet normal -0.5079961996788334 -0.8613593101092384 0
		outer loop
			vertex -0.048312943428754807 30.786970138549805 -10
			vertex -0.048312943428754807 30.786970138549805 10
			vertex -5.945496082305908 34.264899253845215 10
		endloop
	endfacet
	facet normal -0.49438351047598267 -0.8692438924544963 0
		outer loop
			vertex -0.048312943428754807 30.786970138549805 -10
			vertex 6.537145137786865 27.04148292541504 -10
			vertex -0.048312943428754807 30.786970138549805 10
		endloop
	endfacet
	facet normal -0.49438351047598267 -0.8692438924544963 0
		outer loop
			vertex 6.537145137786865 27.04148292541504 -10
			vertex 6.537145137786865 27.04148292541504 10
			vertex -0.048312943428754807 30.786970138549805 10
		endloop
	endfacet
	facet normal -0.5195702311427217 -0.8544277470390921 0
		outer loop
			vertex 6.537145137786865 27.04148292541504 -10
			vertex 9.784479141235352 25.06680679321289 -10
			vertex 6.537145137786865 27.04148292541504 10
		endloop
	endfacet
	facet normal -0.5195702311427217 -0.8544277470390921 0
		outer loop
			vertex 9.784479141235352 25.06680679321289 -10
			vertex 9.784479141235352 25.06680679321289 10
			vertex 6.537145137786865 27.04148292541504 10
		endloop
	endfacet
	facet normal -0.4970153879388604 -0.867741726639894 0
		outer loop
			vertex 9.784479141235352 25.06680679321289 -10
			vertex 13.3041353225708 23.050857543945312 -10
			vertex 9.784479141235352 25.06680679321289 10
		endloop
	endfacet
	facet normal -0.4970153879388604 -0.867741726639894 0
		outer loop
			vertex 13.3041353225708 23.050857543945312 -10
			vertex 13.3041353225708 23.050857543945312 10
			vertex 9.784479141235352 25.06680679321289 10
		endloop
	endfacet
	facet normal -0.5757156250557329 -0.8176499979004995 0
		outer loop
			vertex 13.3041353225708 23.050857543945312 -10
			vertex 19.05278968811035 19.003171920776367 -10
			vertex 13.3041353225708 23.050857543945312 10
		endloop
	endfacet
	facet normal -0.5757156250557329 -0.8176499979004995 0
		outer loop
			vertex 19.05278968811035 19.003171920776367 -10
			vertex 19.05278968811035 19.003171920776367 10
			vertex 13.3041353225708 23.050857543945312 10
		endloop
	endfacet
	facet normal -0.5198014377274298 -0.8542871094289652 0
		outer loop
			vertex 19.05278968811035 19.003171920776367 -10
			vertex 20.061750411987305 18.389257431030273 -10
			vertex 19.05278968811035 19.003171920776367 10
		endloop
	endfacet
	facet normal -0.5198014377274298 -0.8542871094289652 0
		outer loop
			vertex 20.061750411987305 18.389257431030273 -10
			vertex 20.061750411987305 18.389257431030273 10
			vertex 19.05278968811035 19.003171920776367 10
		endloop
	endfacet
	facet normal -0.48394106016435573 -0.8751005943815827 0
		outer loop
			vertex 20.061750411987305 18.389257431030273 -10
			vertex 21.35557746887207 17.673755645751953 -10
			vertex 20.061750411987305 18.389257431030273 10
		endloop
	endfacet
	facet normal -0.48394106016435573 -0.8751005943815827 0
		outer loop
			vertex 21.35557746887207 17.673755645751953 -10
			vertex 21.35557746887207 17.673755645751953 10
			vertex 20.061750411987305 18.389257431030273 10
		endloop
	endfacet
	facet normal -0.6476891459977339 -0.7619046988677299 0
		outer loop
			vertex 21.35557746887207 17.673755645751953 -10
			vertex 24.346864700317383 15.13088607788086 -10
			vertex 21.35557746887207 17.673755645751953 10
		endloop
	endfacet
	facet normal -0.6476891459977339 -0.7619046988677299 0
		outer loop
			vertex 24.346864700317383 15.13088607788086 -10
			vertex 24.346864700317383 15.13088607788086 10
			vertex 21.35557746887207 17.673755645751953 10
		endloop
	endfacet
	facet normal -0.6396692949247452 -0.7686502410917982 0
		outer loop
			vertex 24.346864700317383 15.13088607788086 -10
			vertex 27.573101043701172 12.44601821899414 -10
			vertex 24.346864700317383 15.13088607788086 10
		endloop
	endfacet
	facet normal -0.6396692949247452 -0.7686502410917982 0
		outer loop
			vertex 27.573101043701172 12.44601821899414 -10
			vertex 27.573101043701172 12.44601821899414 10
			vertex 24.346864700317383 15.13088607788086 10
		endloop
	endfacet
	facet normal -0.6296601908779756 -0.7768706739371176 0
		outer loop
			vertex 27.573101043701172 12.44601821899414 -10
			vertex 31.4897403717041 9.271549224853516 -10
			vertex 27.573101043701172 12.44601821899414 10
		endloop
	endfacet
	facet normal -0.6296601908779756 -0.7768706739371176 0
		outer loop
			vertex 31.4897403717041 9.271549224853516 -10
			vertex 31.4897403717041 9.271549224853516 10
			vertex 27.573101043701172 12.44601821899414 10
		endloop
	endfacet
	facet normal -0.1043150645987921 -0.9945443013248579 0
		outer loop
			vertex 31.4897403717041 9.271549224853516 -10
			vertex 35.02809143066406 8.900421142578125 -10
			vertex 31.4897403717041 9.271549224853516 10
		endloop
	endfacet
	facet normal -0.1043150645987921 -0.9945443013248579 0
		outer loop
			vertex 35.02809143066406 8.900421142578125 -10
			vertex 35.02809143066406 8.900421142578125 10
			vertex 31.4897403717041 9.271549224853516 10
		endloop
	endfacet
	facet normal 0.7727349623968711 -0.6347288223245469 0
		outer loop
			vertex 35.02809143066406 8.900421142578125 -10
			vertex 37.278377532958984 11.639976501464844 -10
			vertex 35.02809143066406 8.900421142578125 10
		endloop
	endfacet
	facet normal 0.7727349623968711 -0.6347288223245469 0
		outer loop
			vertex 37.278377532958984 11.639976501464844 -10
			vertex 37.278377532958984 11.639976501464844 10
			vertex 35.02809143066406 8.900421142578125 10
		endloop
	endfacet
	facet normal 0.7752283097470766 -0.6316811440645436 0
		outer loop
			vertex 37.278377532958984 11.639976501464844 -10
			vertex 40.558265686035156 15.665206909179688 -10
			vertex 37.278377532958984 11.639976501464844 10
		endloop
	endfacet
	facet normal 0.7752283097470766 -0.6316811440645436 0
		outer loop
			vertex 40.558265686035156 15.665206909179688 -10
			vertex 40.558265686035156 15.665206909179688 10
			vertex 37.278377532958984 11.639976501464844 10
		endloop
	endfacet
	facet normal 0.7009105320689647 -0.7132492033187285 0
		outer loop
			vertex 40.558265686035156 15.665206909179688 -10
			vertex 44.900264739990234 19.932092666625977 -10
			vertex 40.558265686035156 15.665206909179688 10
		endloop
	endfacet
	facet normal 0.7009105320689647 -0.7132492033187285 0
		outer loop
			vertex 44.900264739990234 19.932092666625977 -10
			vertex 44.900264739990234 19.932092666625977 10
			vertex 40.558265686035156 15.665206909179688 10
		endloop
	endfacet
	facet normal 0.7294723312391259 -0.684010320065827 0
		outer loop
			vertex 44.900264739990234 19.932092666625977 -10
			vertex 48.29021453857422 23.547351837158203 -10
			vertex 44.900264739990234 19.932092666625977 10
		endloop
	endfacet
	facet normal 0.7294723312391259 -0.684010320065827 0
		outer loop
			vertex 48.29021453857422 23.547351837158203 -10
			vertex 48.29021453857422 23.547351837158203 10
			vertex 44.900264739990234 19.932092666625977 10
		endloop
	endfacet
	facet normal 0.8511559965144407 -0.524912820949831 0
		outer loop
			vertex 48.29021453857422 23.547351837158203 -10
			vertex 50.21401596069336 26.666831970214844 -10
			vertex 48.29021453857422 23.547351837158203 10
		endloop
	endfacet
	facet normal 0.8511559965144407 -0.524912820949831 0
		outer loop
			vertex 50.21401596069336 26.666831970214844 -10
			vertex 50.21401596069336 26.666831970214844 10
			vertex 48.29021453857422 23.547351837158203 10
		endloop
	endfacet
	facet normal 0.7785600531211215 0.6275701105725451 0
		outer loop
			vertex 50.21401596069336 26.666831970214844 -10
			vertex 48.111167907714844 29.27561378479004 -10
			vertex 50.21401596069336 26.666831970214844 10
		endloop
	endfacet
	facet normal 0.7785600531211215 0.6275701105725451 0
		outer loop
			vertex 48.111167907714844 29.27561378479004 -10
			vertex 48.111167907714844 29.27561378479004 10
			vertex 50.21401596069336 26.666831970214844 10
		endloop
	endfacet
	facet normal 0.6049809909435834 0.7962399139687234 0
		outer loop
			vertex 48.111167907714844 29.27561378479004 -10
			vertex 44.010921478271484 32.39097023010254 -10
			vertex 48.111167907714844 29.27561378479004 10
		endloop
	endfacet
	facet normal 0.6049809909435834 0.7962399139687234 0
		outer loop
			vertex 44.010921478271484 32.39097023010254 -10
			vertex 44.010921478271484 32.39097023010254 10
			vertex 48.111167907714844 29.27561378479004 10
		endloop
	endfacet
	facet normal 0.5736221862215867 0.8191200079807399 0
		outer loop
			vertex 44.010921478271484 32.39097023010254 -10
			vertex 41.28675842285156 34.29867649078369 -10
			vertex 44.010921478271484 32.39097023010254 10
		endloop
	endfacet
	facet normal 0.5736221862215867 0.8191200079807399 0
		outer loop
			vertex 41.28675842285156 34.29867649078369 -10
			vertex 41.28675842285156 34.29867649078369 10
			vertex 44.010921478271484 32.39097023010254 10
		endloop
	endfacet
	facet normal 0.45107369767968974 0.8924867053696499 0
		outer loop
			vertex 41.28675842285156 34.29867649078369 -10
			vertex 38.31449508666992 35.80089473724365 -10
			vertex 41.28675842285156 34.29867649078369 10
		endloop
	endfacet
	facet normal 0.45107369767968974 0.8924867053696499 0
		outer loop
			vertex 38.31449508666992 35.80089473724365 -10
			vertex 38.31449508666992 35.80089473724365 10
			vertex 41.28675842285156 34.29867649078369 10
		endloop
	endfacet
	facet normal 0.4452871525867279 0.895387821975039 0
		outer loop
			vertex 38.31449508666992 35.80089473724365 -10
			vertex 34.93115997314453 37.4834680557251 -10
			vertex 38.31449508666992 35.80089473724365 10
		endloop
	endfacet
	facet normal 0.4452871525867279 0.895387821975039 0
		outer loop
			vertex 34.93115997314453 37.4834680557251 -10
			vertex 34.93115997314453 37.4834680557251 10
			vertex 38.31449508666992 35.80089473724365 10
		endloop
	endfacet
	facet normal 0.37893222603137794 0.9254244259121892 0
		outer loop
			vertex 34.93115997314453 37.4834680557251 -10
			vertex 31.750627517700195 38.78579616546631 -10
			vertex 34.93115997314453 37.4834680557251 10
		endloop
	endfacet
	facet normal 0.37893222603137794 0.9254244259121892 0
		outer loop
			vertex 31.750627517700195 38.78579616546631 -10
			vertex 31.750627517700195 38.78579616546631 10
			vertex 34.93115997314453 37.4834680557251 10
		endloop
	endfacet
	facet normal 0.5191691072526348 0.8546715381212261 0
		outer loop
			vertex 31.750627517700195 38.78579616546631 -10
			vertex 26.77787208557129 41.80648994445801 -10
			vertex 31.750627517700195 38.78579616546631 10
		endloop
	endfacet
	facet normal 0.5191691072526348 0.8546715381212261 0
		outer loop
			vertex 26.77787208557129 41.80648994445801 -10
			vertex 26.77787208557129 41.80648994445801 10
			vertex 31.750627517700195 38.78579616546631 10
		endloop
	endfacet
	facet normal 0.5780768192365617 0.8159823472731134 0
		outer loop
			vertex 26.77787208557129 41.80648994445801 -10
			vertex 23.1820068359375 44.353954792022705 -10
			vertex 26.77787208557129 41.80648994445801 10
		endloop
	endfacet
	facet normal 0.5780768192365617 0.8159823472731134 0
		outer loop
			vertex 23.1820068359375 44.353954792022705 -10
			vertex 23.1820068359375 44.353954792022705 10
			vertex 26.77787208557129 41.80648994445801 10
		endloop
	endfacet
	facet normal 0.6038638428153078 0.7970874853743027 0
		outer loop
			vertex 23.1820068359375 44.353954792022705 -10
			vertex 16.2045955657959 49.63995721936226 -10
			vertex 23.1820068359375 44.353954792022705 10
		endloop
	endfacet
	facet normal 0.6038638428153078 0.7970874853743027 0
		outer loop
			vertex 16.2045955657959 49.63995721936226 -10
			vertex 16.2045955657959 49.63995721936226 10
			vertex 23.1820068359375 44.353954792022705 10
		endloop
	endfacet
	facet normal 0.586813194875796 0.8097223439671534 0
		outer loop
			vertex 16.2045955657959 49.63995721936226 -10
			vertex 12.330803871154785 52.4473295211792 -10
			vertex 16.2045955657959 49.63995721936226 10
		endloop
	endfacet
	facet normal 0.586813194875796 0.8097223439671534 0
		outer loop
			vertex 12.330803871154785 52.4473295211792 -10
			vertex 12.330803871154785 52.4473295211792 10
			vertex 16.2045955657959 49.63995721936226 10
		endloop
	endfacet
	facet normal 0.6104408269490323 0.7920618642465889 0
		outer loop
			vertex 12.330803871154785 52.4473295211792 -10
			vertex 6.990349769592285 56.56320905685425 -10
			vertex 12.330803871154785 52.4473295211792 10
		endloop
	endfacet
	facet normal 0.6104408269490323 0.7920618642465889 0
		outer loop
			vertex 6.990349769592285 56.56320905685425 -10
			vertex 6.990349769592285 56.56320905685425 10
			vertex 12.330803871154785 52.4473295211792 10
		endloop
	endfacet
	facet normal 0.685351663562365 0.7282122611246661 0
		outer loop
			vertex 6.990349769592285 56.56320905685425 -10
			vertex 4.2973432540893555 59.09771251678467 -10
			vertex 6.990349769592285 56.56320905685425 10
		endloop
	endfacet
	facet normal 0.685351663562365 0.7282122611246661 0
		outer loop
			vertex 4.2973432540893555 59.09771251678467 -10
			vertex 4.2973432540893555 59.09771251678467 10
			vertex 6.990349769592285 56.56320905685425 10
		endloop
	endfacet
	facet normal 0.6930824923534351 0.720858279270725 0
		outer loop
			vertex 4.2973432540893555 59.09771251678467 -10
			vertex -1.0431294441223145 64.23240852355957 -10
			vertex 4.2973432540893555 59.09771251678467 10
		endloop
	endfacet
	facet normal 0.6930824923534351 0.720858279270725 0
		outer loop
			vertex -1.0431294441223145 64.23240852355957 -10
			vertex -1.0431294441223145 64.23240852355957 10
			vertex 4.2973432540893555 59.09771251678467 10
		endloop
	endfacet
	facet normal 0.6944254582779279 0.7195646481696344 0
		outer loop
			vertex -1.0431294441223145 64.23240852355957 -10
			vertex -3.581683397293091 66.6822738647461 -10
			vertex -1.0431294441223145 64.23240852355957 10
		endloop
	endfacet
	facet normal 0.6944254582779279 0.7195646481696344 0
		outer loop
			vertex -3.581683397293091 66.6822738647461 -10
			vertex -3.581683397293091 66.6822738647461 10
			vertex -1.0431294441223145 64.23240852355957 10
		endloop
	endfacet
	facet normal 0.7253235574208245 0.6884081180886814 0
		outer loop
			vertex -3.581683397293091 66.6822738647461 -10
			vertex -9.335725784301758 72.744873046875 -10
			vertex -3.581683397293091 66.6822738647461 10
		endloop
	endfacet
	facet normal 0.7253235574208245 0.6884081180886814 0
		outer loop
			vertex -9.335725784301758 72.744873046875 -10
			vertex -9.335725784301758 72.744873046875 10
			vertex -3.581683397293091 66.6822738647461 10
		endloop
	endfacet
	facet normal 0.7592560388254559 0.6507920309185399 0
		outer loop
			vertex -9.335725784301758 72.744873046875 -10
			vertex -13.145035743713379 77.18906021118164 -10
			vertex -9.335725784301758 72.744873046875 10
		endloop
	endfacet
	facet normal 0.7592560388254559 0.6507920309185399 0
		outer loop
			vertex -13.145035743713379 77.18906021118164 -10
			vertex -13.145035743713379 77.18906021118164 10
			vertex -9.335725784301758 72.744873046875 10
		endloop
	endfacet
	facet normal 0.7226954265057163 0.6911666372935841 0
		outer loop
			vertex -13.145035743713379 77.18906021118164 -10
			vertex -16.960609436035156 81.1786880493164 -10
			vertex -13.145035743713379 77.18906021118164 10
		endloop
	endfacet
	facet normal 0.7226954265057163 0.6911666372935841 0
		outer loop
			vertex -16.960609436035156 81.1786880493164 -10
			vertex -16.960609436035156 81.1786880493164 10
			vertex -13.145035743713379 77.18906021118164 10
		endloop
	endfacet
	facet normal 0.7473351816916658 0.6644472335753118 0
		outer loop
			vertex -16.960609436035156 81.1786880493164 -10
			vertex -21.696428298950195 86.50528717041016 -10
			vertex -16.960609436035156 81.1786880493164 10
		endloop
	endfacet
	facet normal 0.7473351816916658 0.6644472335753118 0
		outer loop
			vertex -21.696428298950195 86.50528717041016 -10
			vertex -21.696428298950195 86.50528717041016 10
			vertex -16.960609436035156 81.1786880493164 10
		endloop
	endfacet
	facet normal 0.8887667039449192 0.4583598433096911 0
		outer loop
			vertex -21.696428298950195 86.50528717041016 -10
			vertex -24.065820693969727 91.09957504272461 -10
			vertex -21.696428298950195 86.50528717041016 10
		endloop
	endfacet
	facet normal 0.8887667039449192 0.4583598433096911 0
		outer loop
			vertex -24.065820693969727 91.09957504272461 -10
			vertex -24.065820693969727 91.09957504272461 10
			vertex -21.696428298950195 86.50528717041016 10
		endloop
	endfacet
	facet normal -0.7261633045094092 0.6875222579553153 0
		outer loop
			vertex -24.065820693969727 91.09957504272461 -10
			vertex -26.57054328918457 88.4540786743164 -10
			vertex -24.065820693969727 91.09957504272461 10
		endloop
	endfacet
	facet normal -0.7261633045094092 0.6875222579553153 0
		outer loop
			vertex -26.57054328918457 88.4540786743164 -10
			vertex -26.57054328918457 88.4540786743164 10
			vertex -24.065820693969727 91.09957504272461 10
		endloop
	endfacet
	facet normal 0 0 -1
		outer loop
			vertex 21.121837615966797 17.673755645751953 -10
			vertex 16.261749267578125 20.389257431030273 -10
			vertex 20.061750411987305 18.389257431030273 -10
		endloop
	endfacet
	facet normal 0 0 1
		outer loop
			vertex 20.061750411987305 18.389257431030273 10
			vertex 16.261749267578125 20.389257431030273 10
			vertex 21.121837615966797 17.673755645751953 10
		endloop
	endfacet
	facet normal -0.48776250780719305 -0.8729763662194059 0
		outer loop
			vertex 16.261749267578125 20.389257431030273 -10
			vertex 21.121837615966797 17.673755645751953 -10
			vertex 16.261749267578125 20.389257431030273 10
		endloop
	endfacet
	facet normal -0.48776250780719305 -0.8729763662194059 0
		outer loop
			vertex 21.121837615966797 17.673755645751953 -10
			vertex 21.121837615966797 17.673755645751953 10
			vertex 16.261749267578125 20.389257431030273 10
		endloop
	endfacet
	facet normal 0.5594421955302046 0.8288693683930806 0
		outer loop
			vertex 21.121837615966797 17.673755645751953 -10
			vertex 20.061750411987305 18.389257431030273 -10
			vertex 21.121837615966797 17.673755645751953 10
		endloop
	endfacet
	facet normal 0.5594421955302046 0.8288693683930806 0
		outer loop
			vertex 20.061750411987305 18.389257431030273 -10
			vertex 20.061750411987305 18.389257431030273 10
			vertex 21.121837615966797 17.673755645751953 10
		endloop
	endfacet
	facet normal 0.46574632299440855 0.8849182801915599 0
		outer loop
			vertex 20.061750411987305 18.389257431030273 -10
			vertex 16.261749267578125 20.389257431030273 -10
			vertex 20.061750411987305 18.389257431030273 10
		endloop
	endfacet
	facet normal 0.46574632299440855 0.8849182801915599 0
		outer loop
			vertex 16.261749267578125 20.389257431030273 -10
			vertex 16.261749267578125 20.389257431030273 10
			vertex 20.061750411987305 18.389257431030273 10
		endloop
	endfacet
endsolid exported
